<svg xmlns="http://www.w3.org/2000/svg" xmlns:xlink="http://www.w3.org/1999/xlink" viewBox="0 0 494 770"><defs><path id="a" d="M0 0h494v770H0z"/></defs><g fill="none" fill-rule="evenodd"><mask id="b" fill="#fff"><use xlink:href="#a"/></mask><use fill="#D453CC" xlink:href="#a"/><g mask="url(#b)" stroke="#451DD6" stroke-linecap="round"><path d="M-15.824-312h.135l.27 17.431.399 16.373.52 16.199.634 16.106.736 16.049.826 16.006.902 15.972.95 15.946.956 15.926.92 15.909.848 15.895.753 15.883.646 15.874.511 15.865.35 15.859.184 15.852.047 15.847-.04 15.839-.088 15.834-.088 15.828-.041 15.823.052 15.818.174 15.813.312 15.808.452 15.803.58 15.796.64 15.791.587 15.788.448 15.656.283 15.42.124 15.421-.004 15.422-.067 15.422-.056 15.421.022 15.423.138 15.42.265 15.419.392 15.416.499 15.415.545 15.413.499 15.414.375 15.416.216 15.42.056 15.421-.1 15.422-.241 15.424-.345 15.423-.394 15.424-.395 15.423-.382 15.424-.363 15.424-.327 15.423-.266 15.424-.189 15.422-.132 15.421-.132 15.421-.208 15.421-.332 15.424-.457 15.423-.564 15.424-.653 15.424-.738 15.424-.818 15.423-.857 15.424-.812 15.423-.778 15.425-.818 15.423-.859 15.425-.876 15.424-.867 15.423-.851 15.424-.823 15.424-.795 15.425-.761 15.424-.729 15.426"/><path d="M-7.393-312h.199l.396 17.431.586 16.372.766 16.197.932 16.104 1.083 16.044 1.216 15.998 1.328 15.964 1.399 15.936 1.409 15.915 1.356 15.896 1.248 15.885 1.109 15.873.949 15.866.752 15.859.514 15.854.268 15.849.063 15.842-.073 15.836-.149 15.831-.157 15.825-.091 15.821.043 15.815.224 15.811.426 15.804.633 15.795.821 15.787.91 15.779.834 15.778.629 15.652.386 15.421.15 15.425-.037 15.426-.131 15.425-.113 15.426.001 15.425.172 15.423.363 15.42.55 15.416.71 15.411.782 15.409.717 15.409.537 15.415.307 15.421.071 15.424-.156 15.428-.365 15.428L15.655 428l-.591 15.429-.596 15.427-.58 15.429-.555 15.429-.5 15.429-.41 15.428-.296 15.426-.202 15.425-.199 15.424-.305 15.425-.482 15.428-.664 15.429-.816 15.43-.947 15.429-1.065 15.428-1.178 15.429-1.231 15.428-1.157 15.429L2.78 721.13l-1.154 15.43-1.211 15.428-1.226 15.428-1.21 15.429-1.176 15.43-1.13 15.43-1.079 15.431-1.024 15.432L-7.393 860"/><path d="M2.242-312h.268l.533 17.43.788 16.37 1.032 16.194 1.255 16.1 1.458 16.035 1.64 15.99 1.791 15.95 1.888 15.92 1.901 15.896 1.828 15.879 1.685 15.866 1.495 15.859 1.279 15.852 1.012 15.848.689 15.846.358 15.842.075 15.838-.119 15.83-.232 15.826-.253 15.82-.172 15.816.006 15.81.247 15.806.521 15.798.805 15.787 1.055 15.774 1.178 15.763 1.076 15.762.797 15.646.471 15.424.153 15.429-.1 15.432-.226 15.432-.204 15.431-.047 15.431.184 15.429.444 15.422.7 15.416.92 15.406 1.019 15.402.94 15.403.704 15.414.394 15.423.078 15.43-.227 15.435-.506 15.436-.714 15.435-.815 15.437-.828 15.435-.81 15.436-.779 15.437-.708 15.436-.582 15.436-.423 15.433-.289 15.431-.275 15.43-.41 15.431-.641 15.435-.879 15.438-1.081 15.437-1.25 15.438-1.403 15.436-1.549 15.434-1.608 15.434-1.502 15.437-1.414 15.437-1.478 15.437-1.543 15.435-1.555 15.437-1.523 15.436-1.466 15.437-1.392 15.44-1.312 15.441-1.224 15.442L2.242 860"/><path d="M10.673-312h.354l.704 17.43 1.043 16.368 1.365 16.19 1.662 16.091 1.931 16.026 2.173 15.972 2.377 15.931 2.503 15.895 2.521 15.869 2.426 15.851 2.234 15.84 1.981 15.835 1.692 15.832 1.339 15.832.913 15.834.468 15.834.085 15.829-.188 15.824-.355 15.818-.4 15.812-.301 15.809-.073 15.803.245 15.8.612 15.789.988 15.774 1.323 15.756 1.487 15.743 1.351 15.743.984 15.636.549 15.43.127 15.438-.209 15.44-.377 15.439-.345 15.441-.14 15.439.173 15.437.519 15.427.866 15.416 1.159 15.402 1.302 15.393 1.205 15.397.898 15.412.496 15.427.078 15.438-.325 15.445-.693 15.447-.969 15.446-1.108 15.446-1.133 15.446-1.116 15.445-1.081 15.447-.988 15.447-.818 15.447-.597 15.445-.41 15.441-.374 15.438-.542 15.441-.836 15.446-1.143 15.448-1.403 15.449-1.617 15.448-1.813 15.446-1.99 15.442-2.055 15.441-1.899 15.446-1.771 15.448-1.838 15.448-1.914 15.446-1.911 15.445-1.853 15.447-1.76 15.449-1.647 15.452-1.522 15.455-1.383 15.459L10.673 860"/><path d="M21.512-312h.417l.829 17.429 1.229 16.365 1.606 16.184 1.957 16.081 2.277 16.01 2.563 15.951 2.805 15.902 2.954 15.86 2.978 15.83 2.863 15.812 2.635 15.804 2.336 15.801 1.997 15.804 1.576 15.811 1.073 15.816.545 15.821.08 15.819-.261 15.814L53.49-8.28l-.554 15.8-.454 15.798-.193 15.794.183 15.79.616 15.779 1.064 15.76 1.461 15.734 1.654 15.716 1.496 15.719 1.063 15.626.549 15.439.049 15.45-.346 15.451-.548 15.451-.51 15.452-.264 15.451.106 15.448.524 15.436.936 15.419 1.29 15.397 1.47 15.385 1.367 15.39 1.018 15.41.549 15.433.059 15.45-.414 15.458-.847 15.462-1.173 15.46-1.345 15.458-1.381 15.457-1.374 15.459-1.34 15.46-1.232 15.461-1.028 15.461-.754 15.46-.518 15.456-.459 15.451-.636 15.454-.97 15.461-1.319 15.463-1.615 15.464-1.858 15.461-2.073 15.456-2.267 15.451-2.325 15.449-2.12 15.456-1.95 15.463-2.011 15.461-2.079 15.459-2.057 15.457-1.966 15.461-1.835 15.465-1.68 15.471-1.507 15.475-1.316 15.482L21.512 860"/><path d="M31.147-312h.513l1.02 17.427 1.511 16.363 1.976 16.176 2.41 16.067 2.805 15.988 3.161 15.922 3.458 15.862 3.645 15.814 3.674 15.778 3.534 15.759 3.252 15.755 2.878 15.757 2.458 15.767 1.94 15.78 1.32 15.795.663 15.804.073 15.804-.375 15.799-.677 15.79-.795 15.784-.695 15.78-.381 15.782.078 15.778.617 15.766 1.172 15.742 1.667 15.71 1.907 15.685 1.712 15.691 1.175 15.617.544 15.453-.076 15.465-.566 15.466-.816 15.463-.768 15.465-.463 15.466v15.464l.521 15.451 1.039 15.425 1.489 15.397 1.72 15.377 1.613 15.383 1.199 15.41.628 15.443.03 15.466-.552 15.477-1.082 15.479-1.486 15.476-1.707 15.471-1.768 15.472-1.771 15.472-1.74 15.474-1.612 15.477-1.355 15.481-1.003 15.48-.686 15.474-.587 15.471-.783 15.473-1.175 15.48-1.59 15.483-1.939 15.48-2.22 15.476-2.469 15.467-2.687 15.459-2.729 15.456-2.451 15.469-2.214 15.48-2.266 15.478-2.321 15.473-2.265 15.473-2.126 15.479-1.933 15.486-1.712 15.496-1.464 15.506-1.194 15.517L31.147 860"/><path d="M40.783-312h.61l1.216 17.426 1.8 16.357 2.358 16.166 2.876 16.05 3.35 15.961 3.776 15.883 4.134 15.813 4.359 15.753 4.393 15.711 4.225 15.691 3.888 15.69 3.439 15.701 2.933 15.717 2.315 15.741 1.573 15.767.78 15.781.055 15.786-.515 15.779-.916 15.769-1.096 15.759-1.004 15.758-.646 15.763-.095 15.762.549 15.751 1.221 15.724 1.816 15.682 2.108 15.652 1.875 15.661 1.233 15.608.473 15.473-.269 15.486-.858 15.482-1.159 15.476-1.102 15.478-.733 15.486-.172 15.484.46 15.47 1.091 15.44 1.644 15.4 1.94 15.372 1.834 15.379 1.36 15.416.692 15.457-.021 15.486-.712 15.499-1.34 15.501-1.829 15.493-2.102 15.487-2.196 15.484-2.218 15.484-2.196 15.488-2.048 15.492-1.735 15.502-1.295 15.505-.887 15.501-.733 15.498-.936 15.499-1.376 15.506-1.853 15.506-2.251 15.499-2.564 15.491-2.838 15.478-3.066 15.462-3.083 15.46-2.714 15.483-2.401 15.502-2.426 15.497-2.459 15.491-2.354 15.493-2.148 15.503-1.881 15.515-1.576 15.531-1.237 15.548-.868 15.567L40.783 860"/><path d="M48.226-312h.712l1.413 17.423 2.097 16.352 2.747 16.153 3.352 16.029 3.908 15.926 4.407 15.836 4.827 15.75 5.091 15.677 5.132 15.626 4.936 15.606 4.538 15.608 4.014 15.63 3.42 15.658 2.697 15.693 1.831 15.729.896 15.755.025 15.762-.682 15.755-1.201 15.74-1.462 15.726-1.39 15.726-.99 15.734-.353 15.741.406 15.733 1.2 15.703 1.903 15.655 2.245 15.617 1.974 15.63 1.224 15.603.331 15.499-.539 15.51-1.23 15.498-1.585 15.487-1.519 15.492-1.086 15.505-.42 15.511.332 15.495 1.085 15.462 1.747 15.412 2.12 15.375 2.026 15.381 1.499 15.424.734 15.477-.091 15.513-.894 15.528-1.624 15.524-2.196 15.512-2.533 15.499-2.667 15.494-2.717 15.493-2.709 15.497-2.548 15.506-2.175 15.522-1.638 15.535-1.122 15.535-.9 15.531-1.094 15.535-1.576 15.537-2.105 15.532-2.545 15.521-2.884 15.503-3.169 15.486-3.397 15.462-3.369 15.459-2.9 15.498-2.493 15.527-2.478 15.522-2.471 15.515-2.301 15.518-2.014 15.535-1.655 15.555-1.248 15.58-.803 15.609-.313 15.64.217 15.673"/><path d="M59.317-312h.818l1.627 17.421 2.413 16.344 3.161 16.139 3.862 16.002 4.504 15.886 5.083 15.777 5.571 15.674 5.874 15.583 5.924 15.523 5.697 15.5 5.236 15.511 4.63 15.543 3.939 15.583 3.107 15.635 2.105 15.685 1.019 15.723-.017 15.735-.886 15.724-1.544 15.701-1.905 15.682-1.87 15.68-1.437 15.695-.704 15.711.182 15.712 1.107 15.681 1.928 15.627 2.33 15.583 2.015 15.602 1.146 15.599.111 15.533-.901 15.535-1.703 15.511-2.116 15.492-2.042 15.5-1.537 15.523-.756 15.541.127 15.532 1.018 15.494 1.808 15.434 2.268 15.386 2.199 15.391 1.622 15.443.761 15.503-.186 15.546-1.104 15.561-1.944 15.551-2.607 15.528-3.017 15.509-3.2 15.499-3.291 15.495-3.307 15.497-3.131 15.51-2.698 15.539-2.049 15.566-1.408 15.577-1.096 15.575-1.271 15.577-1.784 15.575-2.36 15.562-2.834 15.541-3.191 15.515-3.48 15.487-3.689 15.454-3.601 15.454-3.009 15.514-2.494 15.558-2.424 15.555-2.357 15.544-2.104 15.553-1.714 15.578-1.243 15.614-.716 15.651-.138 15.695.493 15.744L59.317 860"/><path d="M69.639-312h.913l1.819 17.418 2.697 16.337 3.537 16.12 4.323 15.97 5.045 15.839 5.696 15.708 6.245 15.582 6.585 15.473 6.642 15.399 6.386 15.374 5.873 15.395 5.188 15.44 4.41 15.497 3.475 15.566 2.355 15.633 1.124 15.685-.072 15.701-1.103 15.686-1.913 15.654-2.392 15.622-2.413 15.617-1.955 15.64-1.14 15.671-.139 15.682.916 15.659 1.847 15.599 2.305 15.553 1.953 15.573.97 15.601-.199 15.57-1.339 15.559-2.249 15.518-2.713 15.486-2.634 15.497-2.063 15.536-1.176 15.573-.161 15.575.863 15.538 1.778 15.472 2.335 15.412 2.301 15.412 1.697 15.469.754 15.542-.295 15.586-1.321 15.598-2.259 15.58-3.007 15.545-3.488 15.511-3.732 15.494-3.87 15.483-3.918 15.482-3.738 15.499-3.251 15.544-2.491 15.595-1.72 15.625-1.304 15.63-1.438 15.629-1.963 15.621-2.568 15.595-3.058 15.56-3.414 15.521-3.683 15.481-3.856 15.437-3.687 15.442-2.973 15.532-2.342 15.6-2.2 15.596-2.055 15.585-1.702 15.603-1.2 15.642-.606 15.694.051 15.753.767 15.818 1.55 15.893 2.4 15.973"/><path d="M77.472-312h1.042l2.071 17.415 3.073 16.327 4.032 16.1 4.932 15.935 5.76 15.782 6.508 15.63 7.134 15.475 7.524 15.343 7.589 15.256 7.301 15.229 6.712 15.258 5.925 15.32 5.033 15.398 3.963 15.486 2.682 15.574 1.265 15.64-.139 15.661-1.388 15.642-2.398 15.594L153.06 1.61l-3.128 15.531-2.647 15.563-1.724 15.615-.566 15.645.655 15.631 1.739 15.574 2.271 15.522 1.867 15.55.734 15.603-.614 15.612-1.929 15.577-2.973 15.509-3.512 15.463-3.425 15.477-2.766 15.539-1.741 15.603-.553 15.625.648 15.596 1.734 15.525 2.421 15.454 2.438 15.448 1.8 15.511.75 15.59-.437 15.636-1.604 15.642-2.669 15.609-3.532 15.556-4.108 15.508-4.43 15.474-4.632 15.454-4.72 15.441-4.54 15.465-3.983 15.531-3.086 15.617-2.142 15.674-1.591 15.694-1.667 15.692-2.205 15.673-2.842 15.629L93 624.245l-3.7 15.522-3.94 15.466-4.055 15.412-3.781 15.423-2.909 15.555-2.133 15.654-1.893 15.654-1.641 15.645-1.16 15.674-.509 15.732.244 15.809 1.065 15.897 1.96 15.991 2.934 16.101 3.99 16.22"/><path d="M86.13-312h1.142l2.272 17.412 3.373 16.316 4.428 16.077 5.42 15.895 6.334 15.72 7.159 15.54 7.85 15.354 8.279 15.195 8.351 15.091 8.035 15.063 7.387 15.104 6.519 15.185 5.532 15.283 4.351 15.397 2.945 15.508 1.373 15.589-.216 15.617L175-31.064l-2.872 15.519-3.671 15.447-3.86 15.418-3.381 15.46-2.375 15.536-1.09 15.592.276 15.598 1.493 15.547 2.088 15.496 1.64 15.524.382 15.607-1.12 15.653-2.577 15.584-3.736 15.48-4.334 15.412-4.242 15.432-3.518 15.524-2.373 15.625-1.039 15.679.323 15.667 1.567 15.597 2.382 15.518 2.469 15.503 1.825 15.568.706 15.65-.586 15.697-1.863 15.691-3.032 15.641-3.988 15.563-4.652 15.492-5.052 15.437-5.325 15.397-5.459 15.373-5.287 15.397-4.683 15.489-3.673 15.621-2.569 15.723-1.875 15.765-1.871 15.765-2.388 15.73-3.024 15.667-3.519 15.59-3.83 15.517-4.011 15.441-4.037 15.376-3.644 15.402-2.637 15.588-1.727 15.728-1.371 15.733-1 15.73-.376 15.776.417 15.862 1.32 15.973 2.299 16.093 3.359 16.23 4.506 16.385L86.13 860"/><path d="M95.876-312h1.243l2.475 17.407 3.676 16.305 4.827 16.053 5.915 15.852 6.919 15.651 7.821 15.438 8.577 15.22 9.045 15.029 9.123 14.908 8.779 14.876 8.074 14.93 7.124 15.036 6.036 15.159 4.747 15.297 3.208 15.433 1.481 15.534-.3 15.568-1.962 15.529-3.387 15.433-4.374 15.322-4.678 15.273-4.213 15.322-3.133 15.427-1.716 15.522-.193 15.555 1.159 15.516 1.825 15.469 1.33 15.499-.063 15.608-1.721 15.688-3.329 15.574-4.6 15.42-5.26 15.324-5.167 15.351-4.379 15.483-3.114 15.633-1.627 15.732-.094 15.75 1.323 15.689 2.286 15.603 2.46 15.582 1.826 15.643.648 15.727-.747 15.769-2.137 15.748-3.409 15.673-4.462 15.566-5.217 15.463-5.706 15.38-6.051 15.309-6.235 15.261-6.079 15.285-5.436 15.409-4.319 15.599-3.053 15.763-2.199 15.841-2.095 15.847-2.572 15.794-3.187 15.704-3.645 15.599-3.896 15.504-3.99 15.409-3.898 15.334-3.368 15.383-2.232 15.636-1.189 15.828-.704 15.845-.183 15.85.589 15.92 1.54 16.044 2.598 16.195 3.736 16.363 4.961 16.549 6.278 16.762L95.876 860"/><path d="M105.923-312h1.355l2.698 17.403 4.01 16.293 5.272 16.027 6.464 15.805 7.566 15.574 8.557 15.33 9.382 15.072 9.893 14.848 9.978 14.705 9.607 14.672 8.836 14.741 7.795 14.871 6.598 15.023 5.181 15.19 3.502 15.353 1.599 15.473-.391 15.514-2.296 15.462-3.966 15.33-5.172 15.174-5.616 15.091-5.18 15.142-4.021 15.285-2.458 15.425-.764 15.495.746 15.48 1.49 15.439.947 15.468-.602 15.601-2.442 15.711-4.211 15.538-5.606 15.323-6.331 15.19-6.241 15.224-5.386 15.404-3.995 15.62-2.339 15.781-.612 15.84 1.007 15.8 2.142 15.714 2.431 15.682 1.819 15.74.581 15.821-.924 15.853-2.437 15.814-3.825 15.709-4.982 15.565-5.841 15.421-6.423 15.297-6.848 15.187-7.083 15.104-6.939 15.119-6.265 15.276-5.047 15.543-3.617 15.788-2.584 15.917-2.359 15.933-2.774 15.863-3.347 15.741-3.749 15.606-3.912 15.485-3.885 15.374-3.643 15.29-2.959 15.373-1.704 15.707-.528 15.962.112 15.997.802 16.014 1.748 16.122 2.862 16.289 4.082 16.492 5.386 16.715 6.776 16.964 8.255 17.244L105.923 860"/><path d="M115.519-312h1.457l2.899 17.399 4.313 16.281 5.678 15.999 6.969 15.755 8.163 15.496 9.236 15.211 10.125 14.913 10.67 14.653 10.764 14.484 10.368 14.452 9.541 14.536 8.413 14.696 7.112 14.879 5.58 15.077 3.768 15.268 1.707 15.409-.482 15.455-2.623 15.389-4.543 15.213-5.979 14.999-6.583 14.868-6.195 14.918-4.979 15.1-3.282 15.297-1.422 15.417.242 15.432L197.502 100l.468 15.429-1.23 15.578-3.24 15.717-5.159 15.467-6.663 15.179-7.446 15-7.36 15.042-6.457 15.278-4.957 15.578-3.143 15.814-1.231 15.934.594 15.928 1.918 15.849 2.338 15.81 1.775 15.858.502 15.933-1.095 15.954-2.721 15.889-4.214 15.748-5.47 15.562-6.424 15.369-7.098 15.19-7.592 15.025-7.863 14.898L108 487.923l-7.042 15.086-5.76 15.438-4.192 15.787-2.99 15.986-2.625 16.022-2.95 15.938-3.448 15.779-3.756 15.61-3.799 15.465-3.618 15.337-3.192 15.256-2.353 15.382-1.018 15.811.263 16.137 1.065 16.196 1.941 16.239 3.054 16.386 4.322 16.61 5.683 16.873 7.125 17.163 8.648 17.482 10.247 17.843L115.519 860"/><path d="M124.187-312h1.538l3.061 17.395 4.56 16.268 6.008 15.972 7.386 15.703 8.66 15.413 9.801 15.088 10.738 14.746 11.315 14.443 11.412 14.252 10.998 14.217 10.127 14.321 8.927 14.511 7.537 14.729 5.906 14.96 3.985 15.178 1.793 15.341-.564 15.395-2.917 15.309-5.073 15.087-6.735 14.798-7.507 14.605-7.193 14.644-5.943 14.87-4.139 15.134-2.136 15.315-.333 15.369.561 15.358-.085 15.376-1.915 15.538-4.073 15.697-6.114 15.358-7.701 14.979-8.526 14.748-8.45 14.795-7.518 15.096-5.943 15.494-4.004 15.828-1.926 16.025.092 16.069 1.608 16.007 2.178 15.961 1.693 16 .415 16.065-1.245 16.07-2.959 15.979-4.541 15.796-5.882 15.559-6.917 15.304-7.664 15.062-8.204 14.829-8.492 14.642-8.362 14.608-7.675 14.832-6.379 15.281-4.729 15.753-3.382 16.043-2.87 16.11-3.077 16.012-3.465 15.819-3.642 15.616-3.528 15.447-3.163 15.312-2.531 15.24-1.549 15.423-.2 15.952 1.142 16.362 2.106 16.45 3.163 16.527 4.428 16.725 5.812 17.013 7.278 17.345 8.814 17.708 10.411 18.106 12.06 18.557L124.187 860"/><path d="M134.78-312h1.622l3.233 17.391 4.819 16.256 6.362 15.944 7.831 15.652 9.192 15.328 10.407 14.96 11.398 14.571 12.003 14.226 12.106 14.008 11.673 13.972 10.755 14.097 9.479 14.321 7.991 14.574 6.252 14.841 4.213 15.089 1.889 15.27-.642 15.332-3.211 15.227-5.617 14.953-7.523 14.578-8.483 14.306-8.255 14.321-6.982 14.593-5.07 14.933-2.915 15.185-.961 15.289.007 15.299-.688 15.306-2.668 15.473-4.982 15.649-7.147 15.202-8.81 14.722-9.673 14.427-9.609 14.479-8.662 14.853-7.022 15.359-4.962 15.812-2.713 16.106-.488 16.217 1.246 16.185 1.994 16.136 1.607 16.163.339 16.217-1.384 16.206-3.192 16.082-4.87 15.855-6.299 15.561-7.415 15.236-8.228 14.915-8.794 14.602-9.067 14.343-8.914 14.271-8.231 14.516-6.956 15.067-5.267 15.681-3.796 16.078-3.13 16.195-3.199 16.086-3.445 15.862-3.461 15.627-3.159 15.442-2.574 15.303-1.714 15.256-.602 15.504.717 16.141 2.085 16.636 3.215 16.766 4.462 16.882 5.867 17.142 7.351 17.498 8.896 17.906 10.49 18.346 12.126 18.831 13.769 19.371L134.78 860"/><path d="M142.412-312h1.696l3.382 17.387 5.05 16.244 6.68 15.918 8.237 15.601 9.681 15.243 10.965 14.832 12.006 14.392 12.633 14.002 12.74 13.759 12.293 13.719 11.335 13.868 9.988 14.127 8.404 14.421 6.562 14.723 4.418 14.997 1.976 15.2-.703 15.268-3.472 15.145-6.112 14.816-8.264 14.347-9.42 13.975-9.292 13.957-8.018 14.272-6.015 14.693-3.721 15.028-1.623 15.191-.58 15.223-1.328 15.218-3.451 15.382-5.911 15.567-8.18 15-9.897 14.406-10.782 14.04-10.733 14.092-9.791 14.54-8.119 15.171-5.966 15.758-3.566 16.169-1.138 16.366.821 16.376 1.77 16.331 1.508 16.347.277 16.388-1.489 16.358-3.383 16.203-5.151 15.93-6.662 15.571-7.851 15.17-8.704 14.759-9.266 14.355-9.484 14.014-9.274 13.893-8.594 14.151-7.388 14.801-5.73 15.564-4.179 16.093-3.369 16.268-3.281 16.161-3.357 15.909-3.178 15.649-2.657 15.452-1.831 15.325-.733 15.315.478 15.639 1.701 16.377 3.05 16.96 4.331 17.137 5.756 17.304 7.274 17.63 8.82 18.061 10.394 18.544 12.002 19.065 13.611 19.632 15.17 20.262L142.412 860"/><path d="M153.604-312h1.752l3.497 17.384 5.232 16.233 6.938 15.893 8.575 15.552 10.093 15.16 11.436 14.704 12.516 14.213 13.162 13.776 13.272 13.506 12.814 13.465 11.825 13.638 10.417 13.936 8.748 14.27 6.809 14.607 4.58 14.909 2.05 15.129-.74 15.204-3.67 15.068-6.521 14.683-8.905 14.112L267.228-2.93l-10.244 13.558-8.99 13.913-6.923 14.423-4.509 14.846-2.283 15.074-1.174 15.133-1.972 15.109-4.225 15.266-6.809 15.454-9.154 14.755-10.895 14.035-11.781 13.589-11.745 13.636-10.836 14.161-9.172 14.924-6.968 15.659-4.45 16.207-1.84 16.508.344 16.573 1.505 16.542 1.404 16.548.237 16.576-1.546 16.529-3.506 16.344-5.36 16.021-6.945 15.595-8.187 15.11-9.058 14.604-9.574 14.102-9.694 13.674-9.388 13.493-8.702 13.755-7.608 14.493-6.063 15.411-4.494 16.08-3.561 16.33-3.307 16.235-3.189 15.962-2.793 15.685-2.034 15.488-.956 15.383.368 15.426 1.637 15.829 2.698 16.662 3.972 17.326 5.386 17.556 6.959 17.781 8.553 18.178 10.111 18.683 11.667 19.24 13.224 19.838 14.742 20.486 16.14 21.19L153.604 860"/><path d="M163.65-312h1.803l3.604 17.381 5.405 16.225 7.186 15.869 8.907 15.508 10.503 15.08 11.909 14.579 13.027 14.036 13.691 13.553 13.802 13.253 13.337 13.214 12.317 13.411 10.846 13.75 9.082 14.126 7.049 14.498 4.732 14.826 2.127 15.061-.755 15.142-3.825 14.995-6.87 14.561-9.493 13.888-11.048 13.277L269.83 7.374l-9.938 13.529-7.818 14.128-5.285 14.647-2.93 14.944-1.753 15.031-2.608 14.986-4.993 15.128-7.701 15.311-10.109 14.471-11.857 13.62-12.731 13.086-12.708 13.123-11.845 13.719-10.218 14.617-7.993 15.512-5.377 16.211-2.59 16.632-.173 16.773 1.228 16.762 1.309 16.759.235 16.777-1.553 16.716-3.583 16.504-5.527 16.134-7.196 15.639-8.488 15.065-9.357 14.46-9.796 13.858-9.777 13.341-9.329 13.098-8.609 13.349-7.654 14.162-6.282 15.224-4.757 16.043-3.725 16.38-3.302 16.307-2.98 16.026-2.347 15.738-1.337 15.553-.002 15.483 1.535 15.59 2.823 16.074 3.676 16.985 4.842 17.722 6.365 18.009 8.071 18.297 9.708 18.765 11.245 19.34 12.743 19.967 14.213 20.634 15.588 21.351 16.771 22.118L163.65 860"/><path d="M170.781-312h1.841l3.683 17.379 5.54 16.217 7.396 15.851 9.195 15.467 10.866 15.006 12.334 14.461 13.487 13.865 14.161 13.335 14.277 13.007 13.805 12.969 12.758 13.192 11.227 13.573 9.374 13.993 7.244 14.398 4.854 14.748 2.198 14.997-.738 15.082-3.905 14.932-7.12 14.461-9.971 13.688-11.731 12.94-11.971 12.723-10.8 13.136-8.64 13.826-6.004 14.44-3.526 14.806-2.29 14.922-3.196 14.857-5.714 14.976-8.532 15.146-10.987 14.16-12.72 13.171-13.559 12.546-13.546 12.563-12.748 13.223-11.191 14.256-8.987 15.315-6.308 16.176-3.366 16.737-.718 16.962.939 16.982 1.23 16.976.275 16.986-1.491 16.916-3.586 16.683-5.628 16.269-7.384 15.705-8.719 15.042-9.569 14.337-9.905 13.639-9.711 13.039-9.082 12.729-8.295 12.961-7.49 13.825-6.357 15.02-4.936 15.984-3.839 16.42-3.261 16.378-2.73 16.097-1.858 15.812-.595 15.645.983 15.624 2.705 15.802 3.971 16.363 4.577 17.333 5.604 18.133 7.213 18.474 9.019 18.829 10.666 19.363 12.146 20.003 13.552 20.69 14.894 21.417 16.082 22.189 17.008 23.001 17.6 23.832"/><path d="M181.148-312h1.862l3.734 17.378 5.634 16.212 7.554 15.835 9.429 15.432 11.177 14.941 12.7 14.351 13.885 13.704 14.568 13.126 14.684 12.772 14.209 12.734 13.142 12.986 11.552 13.41 9.61 13.873 7.39 14.311 4.936 14.679 2.259 14.935-.683 15.03-3.898 14.88-7.244 14.387-10.315 13.526-12.284 12.638-12.657 12.326-11.547 12.755-9.361 13.529-6.633 14.239-4.042 14.674-2.747 14.815-3.712 14.727-6.355 14.822-9.273 14.969-11.76 13.836-13.456 12.709-14.244 11.984-14.235 11.975-13.512 12.688-12.065 13.846-9.918 15.07-7.214 16.1-4.148 16.81-1.276 17.136.647 17.196 1.176 17.191.374 17.194-1.352 17.124-3.502 16.879-5.65 16.425-7.502 15.795-8.883 15.048-9.702 14.246-9.918 13.459-9.535 12.782-8.688 12.409-7.803 12.611-7.143 13.507-6.291 14.808-5.029 15.911-3.908 16.45-3.19 16.45-2.463 16.178-1.363 15.902.139 15.763 1.939 15.795 3.808 16.049 5.012 16.677 5.356 17.689 6.226 18.536 7.893 18.931 9.771 19.348 11.396 19.943 12.795 20.638 14.084 21.377 15.271 22.15 16.247 22.963 16.892 23.799L181.148 860"/><path d="M191.401-312h1.864l3.745 17.378 5.677 16.208 7.648 15.826 9.595 15.405 11.41 14.884 12.989 14.252 14.201 13.556 14.887 12.931 15.005 12.55 14.53 12.516 13.445 12.796 11.803 13.264 9.773 13.77 7.469 14.24 4.972 14.62 2.308 14.88-.587 14.981-3.787 14.843-7.218 14.344-10.49 13.418-12.675 12.391L304.777-.975 292.633 11.43l-9.945 13.259-7.134 14.059-4.44 14.556-3.094 14.72-4.118 14.612-6.881 14.675-9.891 14.794-12.394 13.516-14.039 12.248-14.762 11.424-14.744 11.376-14.11 12.13-12.797 13.398-10.75 14.781-8.065 15.982-4.905 16.849-1.831 17.288.364 17.395 1.155 17.394.535 17.397-1.121 17.331-3.318 17.084-5.579 16.603-7.539 15.912-8.973 15.081-9.759 14.195-9.859 13.331-9.286 12.585-8.213 12.151-7.193 12.314-6.655 13.222-6.103 14.603-5.045 15.833-3.937 16.473-3.107 16.523-2.21 16.266-.903 16.003.809 15.894 2.796 15.983 4.772 16.311 5.886 16.996 5.968 18.03 6.678 18.911 8.38 19.354 10.3 19.828 11.884 20.478 13.185 21.214 14.345 21.993 15.366 22.804 16.12 23.643 16.488 24.482L191.401 860"/><path d="M198.917-312h1.861l3.749 17.378 5.713 16.208 7.745 15.821 9.772 15.386 11.671 14.839 13.315 14.167 14.561 13.422 15.257 12.753 15.374 12.349 14.897 12.316 13.788 12.627 12.083 13.139 9.948 13.688 7.546 14.184 5.002 14.574 2.362 14.833-.453 14.939-3.597 14.821-7.086 14.34-10.578 13.37-13.009 12.215-13.673 11.683-12.689 12.11-10.463 13.034-7.551 13.915-4.734 14.464-3.335 14.647-4.426 14.52-7.332 14.554-10.461 14.632-12.994 13.215-14.598 11.813-15.251 10.882-15.218 10.787-14.666 11.562-13.496 12.926-11.565 14.456-8.916 15.823-5.671 16.852-2.385 17.409.102 17.573 1.183 17.58.774 17.582-.797 17.529-3.053 17.294-5.459 16.795-7.565 16.051-9.073 15.15-9.848 14.188-9.851 13.263-9.107 12.455-7.804 11.96-6.614 12.08-6.159 12.977-5.895 14.418-5.055 15.757-3.979 16.494-3.063 16.596-2.02 16.357-.531 16.107 1.374 16.029 3.531 16.167 5.589 16.564L62.7 618.91l6.446 18.336 7.013 19.24 8.749 19.722 10.706 20.245 12.255 20.935 13.467 21.707 14.512 22.516 15.378 23.352 15.925 24.204 16.042 25.034L198.917 860"/><path d="M208.178-312h1.83l3.696 17.38 5.67 16.211 7.743 15.821 9.838 15.376 11.809 14.806 13.512 14.098 14.786 13.306 15.488 12.597 15.602 12.169 15.127 12.141 14.001 12.482 12.238 13.037 10.011 13.63 7.52 14.147 4.957 14.541 2.395 14.795-.271 14.904-3.278 14.811-6.748 14.373-10.426 13.392-13.116 12.127-13.941 11.478-13.023 11.887-10.775 12.871-7.768 13.82-4.848 14.411-3.405 14.603-4.56 14.462-7.605 14.471-10.841 14.497-13.404 12.951-14.96 11.417-15.538 10.378-15.48 10.224-15.011 11.006-13.998 12.442-12.222 14.102-9.647 15.628-6.366 16.816-2.904 17.498-.134 17.723 1.252 17.739 1.085 17.74-.365 17.708-2.656 17.496-5.214 16.997-7.48 16.213-9.08 15.248-9.857 14.232-9.8 13.257-8.937 12.399-7.438 11.837-6.065 11.906-5.65 12.781-5.646 14.255-5.03 15.687-4.009 16.518-3.041 16.671-1.897 16.446-.273 16.208 1.777 16.149 4.058 16.331 6.159 16.781 7.072 17.542 6.704 18.588 7.147 19.507 8.899 20.016 10.878 20.576 12.386 21.298 13.518 22.096 14.458 22.924 15.184 23.779 15.543 24.635 15.445 25.446L208.178 860"/><path d="M218.149-312h1.781l3.612 17.382 5.58 16.216 7.691 15.827 9.851 15.377 11.899 14.786 13.663 14.046 14.971 13.213 15.677 12.465 15.792 12.013 15.318 11.992 14.17 12.366 12.344 12.964 10.016 13.594 7.441 14.132 4.869 14.523 2.417 14.765-.049 14.876-2.845 14.817-6.242 14.438-10.088 13.486-13.069 12.135-14.076 11.37-13.221 11.753-10.933 12.785-7.823 13.785-4.79 14.4-3.305 14.592-4.533 14.449-7.728 14.433-11.091 14.402-13.705 12.74-15.234 11.076-15.742 9.928-15.654 9.704-15.255 10.47-14.398 11.959-12.786 13.732-10.311 15.401-7.016 16.743-3.393 17.551-.338 17.84 1.37 17.864 1.473 17.864.171 17.853-2.147 17.683-4.873 17.198-7.331 16.389-9.048 15.381-9.864 14.323-9.795 13.319-8.876 12.415-7.227 11.783-5.669 11.787-5.246 12.625-5.454 14.121-5.036 15.631-4.072 16.547-3.078 16.747-1.877 16.535-.166 16.295 1.993 16.245 4.369 16.454 6.496 16.943 7.311 17.724 6.776 18.773 7.133 19.703 8.901 20.225 10.906 20.807 12.39 21.551 13.47 22.364 14.332 23.21 14.949 24.075 15.157 24.93 14.887 25.718L218.149 860"/><path d="M227.707-312h1.712l3.486 17.385 5.435 16.225 7.571 15.839 9.794 15.386 11.917 14.782 13.747 14.013 15.09 13.142 15.803 12.356 15.918 11.889 15.444 11.874 14.273 12.28 12.379 12.919 9.947 13.585 7.289 14.138 4.727 14.519 2.42 14.747.217 14.856-2.302 14.831-5.546 14.531-9.534 13.644-12.834 12.246-14.055 11.369L337.35 6.275l-10.916 12.783-7.687 13.816-4.537 14.431-3.015 14.617-4.324 14.478-7.675 14.449-11.189 14.357-13.882 12.591-15.409 10.806-15.862 9.544-15.738 9.237-15.397 9.97-14.687 11.489-13.246 13.35-10.888 15.149-7.605 16.635-3.843 17.567-.512 17.921 1.529 17.952 1.929 17.943.805 17.956-1.521 17.839-4.427 17.391-7.1 16.575-8.964 15.538-9.852 14.464-9.824 13.449-8.925 12.506-7.202 11.793-5.475 11.716-5 12.511-5.358 14.014-5.095 15.592-4.175 16.584-3.178 16.827-1.967 16.621-.223 16.368 1.998 16.309 4.438 16.523 6.578 17.033 7.311 17.828 6.66 18.885 6.968 19.819 8.754 20.343 10.791 20.93 12.278 21.684 13.334 22.508 14.157 23.362 14.702 24.237 14.796 25.088 14.403 25.856L227.707 860"/><path d="M237.046-312h1.62l3.32 17.389 5.231 16.236 7.381 15.857 9.66 15.405 11.86 14.793 13.757 14 15.139 13.096 15.863 12.278 15.98 11.792 15.501 11.79 14.305 12.225L379-144.232l9.799 13.603 7.061 14.165 4.527 14.533 2.405 14.739.515 14.84-1.651 14.852-4.665 14.639-8.747 13.859-12.397 12.453L361.983-5.07 348.861 6.717l-10.711 12.87-7.347 13.909-4.084 14.506-2.529 14.67-3.921 14.546-7.443 14.52-11.126 14.366-13.934 12.512-15.492 10.615-15.916 9.235-15.756 8.831-15.456 9.515-14.881 11.04-13.605 12.969-11.379 14.876-8.131 16.495-4.257 17.547-.662 17.967 1.721 17.997 2.433 17.973 1.523 18.007-.788 17.951-3.875 17.565-6.787 16.761-8.818 15.719-9.806 14.65-9.873 13.646-9.081 12.675-7.371 11.867-5.513 11.692-4.952 12.43-5.39 13.937-5.222 15.575-4.323 16.634-3.335 16.915-2.163 16.707-.448 16.425 1.789 16.336 4.258 16.535 6.402 17.046 7.073 17.847 6.359 18.921 6.662 19.861 8.471 20.367 10.547 20.941 12.062 21.696 13.13 22.522 13.955 23.382 14.469 24.264 14.496 25.114 14.025 25.864L237.046 860"/><path d="M247.362-312h1.52l3.137 17.394 5.009 16.249 7.174 15.879 9.521 15.436 11.816 14.818 13.799 14.009 15.236 13.074 15.982 12.229 16.102 11.731 15.613 11.738 14.373 12.206 12.313 12.925 9.643 13.65 6.807 14.213 4.304 14.561 2.384 14.742.847 14.834-.915 14.869-3.637 14.752-7.785 14.109-11.833 12.747L375.17-4.139 362.255 7.817l-10.391 13.04-6.857 14.059-3.454 14.61-1.864 14.74-3.35 14.645-7.079 14.639-10.991 14.431-13.967 12.513-15.619 10.507-16.043 9.005-15.854 8.496-15.578 9.11-15.109 10.619-13.986 12.592-11.882 14.588-8.666 16.326-4.674 17.494-.803 17.976 1.938 18.005 2.992 17.951 2.314 17.993.03 18.013-3.255 17.706-6.443 16.941-8.671 15.915-9.785 14.878-9.991 13.91-9.378 12.92-7.778 12.016-5.834 11.713-5.157 12.384-5.607 13.891L116 477.026l-4.534 16.702-3.556 17.014-2.467 16.797-.827 16.472 1.381 16.332 3.865 16.493 6.017 16.983 6.656 17.787 5.934 18.889 6.28 19.832 8.121 20.303 10.257 20.847 11.837 21.585 12.965 22.408 13.838 23.27 14.369 24.157 14.376 25.009 13.861 25.751L247.362 860"/><path d="M255.749-312h1.393l2.899 17.399 4.708 16.264 6.869 15.907 9.269 15.474 11.647 14.859 13.714 14.037 15.21 13.081 15.98 12.211 16.102 11.703 15.603 11.723 14.317 12.221 12.162 12.976 9.364 13.723 6.449 14.281 4.004 14.603 2.329 14.757 1.196 14.834-.092 14.884-2.43 14.848-6.551 14.374-10.987 13.11-13.101 12.008-12.476 12.219-9.835 13.278-6.131 14.254-2.607 14.726-.998 14.812-2.577 14.757-6.503 14.796-10.648 14.548-13.828 12.589-15.612 10.489-16.077 8.859-15.87 8.233-15.604 8.759-15.224 10.231-14.244 12.224-12.277 14.291-9.123 16.133-5.059 17.408-.945 17.954 2.141 17.974 3.544 17.879 3.127 17.918.915 18.013-2.542 17.809-5.997 17.107-8.418 16.118-9.658 15.138-10.024 14.231-9.658 13.249-8.289 12.241-6.349 11.79-5.551 12.377-5.941 13.881-5.741 15.621-4.741 16.79-3.773 17.127-2.813 16.896-1.328 16.52.779 16.31 3.225 16.408 5.363 16.855 5.991 17.662 5.326 18.798 5.76 19.744 7.611 20.164 9.797 20.652 11.458 21.363 12.674 22.171 13.632 23.031 14.224 23.92 14.248 24.776 13.734 25.52L255.749 860"/><path d="M264.646-312h1.255l2.639 17.405 4.376 16.279 6.532 15.941 8.99 15.52 11.467 14.913 13.639 14.087 15.207 13.112 16.012 12.225 16.143 11.711 15.622 11.743 14.275 12.273 12 13.059 9.056 13.821 6.047 14.368 3.666 14.66 2.259 14.783 1.565 14.838.794 14.887-1.101 14.917-5.123 14.626-9.962 13.515L397.529-.919l-11.925 12.555-9.138 13.574-5.238 14.47-1.586 14.834.039 14.863-1.64 14.863-5.783 14.974-10.207 14.712-13.648 12.74-15.625 10.556-16.178 8.8-15.971 8.041-15.701 8.464-15.388 9.88-14.532 11.871-12.69 13.986-9.606 15.916-5.472 17.295-1.119 17.903 2.323 17.915 4.087 17.765 3.953 17.784 1.831 17.95-1.789 17.867-5.524 17.248-8.141 16.32-9.498 15.422-10.023 14.603-9.946 13.653-8.909 12.551-7.069 11.934-6.156 12.416-6.422 13.914-6.085 15.694-4.949 16.899-3.982 17.255-3.182 17.011-1.914 16.576.031 16.285 2.396 16.298 4.51 16.687 5.155 17.489 4.616 18.669 5.177 19.61 7.028 19.96 9.252 20.375 11.015 21.041 12.352 21.823 13.437 22.671 14.131 23.56 14.215 24.424 13.732 25.175L264.646 860"/><path d="M275.23-312h1.097l2.342 17.411 3.99 16.296 6.128 15.974 8.638 15.575 11.215 14.981 13.496 14.156 15.152 13.171 16.002 12.271 16.14 11.752 15.593 11.802 14.17 12.359 11.766 13.172 8.667 13.943 5.568 14.469 3.268 14.726 2.159 14.822 1.938 14.849 1.722 14.876.34 14.944-3.493 14.835-8.693 13.934-11.651 12.84-11.191 12.948-8.25 13.899-4.156 14.685-.395 14.913 1.228 14.872-.542 14.938-4.897 15.154-9.611 14.911-13.352 12.957-15.578 10.707-16.264 8.824-16.082 7.922-15.801 8.225-15.535 9.565-14.788 11.531-13.078 13.676-10.081 15.681-5.909 17.153-1.346 17.834 2.444 17.837 4.571 17.621 4.736 17.601 2.74 17.829-1.019 17.879-5.014 17.363-7.802 16.512-9.243 15.715-9.895 15.009-10.116 14.119-9.512 12.951-7.89 12.153-6.893 12.514-6.98 13.995-6.426 15.802-5.101 17.028-4.114 17.397-3.508 17.141-2.525 16.655-.817 16.272 1.403 16.187 3.462 16.503 4.144 17.297 3.804 18.52 4.528 19.445 6.337 19.713 8.563 20.034 10.423 20.637 11.897 21.382 13.133 22.206 13.965 23.091 14.146 23.959 13.725 24.728L275.23 860"/><path d="M283.143-312h.921l2.011 17.416 3.552 16.313 5.66 16.011 8.215 15.634 10.893 15.06 13.293 14.244 15.047 13.256 15.951 12.346 16.098 11.83 15.521 11.896 14.007 12.479 11.461 13.314 8.197 14.085 5.012 14.582 2.812 14.804 2.028 14.868 2.304 14.867 2.671 14.85 1.846 14.916-1.7 14.977-7.196 14.332-10.629 13.309-10.281 13.368-7.187 14.232-2.909 14.873.934 14.939 2.538 14.815.683 14.964-3.863 15.316-8.876 15.13-12.943 13.229-15.465 10.934-16.339 8.928-16.204 7.873-15.915 8.041-15.676 9.283-15.029 11.207-13.45 13.358-10.566 15.425-6.395 16.993-1.653 17.748 2.469 17.752 4.965 17.467 5.435 17.386 3.593 17.664-.266 17.852-4.5 17.446-7.422 16.685-8.894 16.005-9.615 15.427-10.106 14.631-10 13.428-8.728 12.456-7.691 12.676-7.564 14.128-6.724 15.944-5.157 17.173-4.133 17.543-3.736 17.288-3.092 16.76-1.703 16.29.305 16.099 2.27 16.33 3.01 17.112 2.935 18.372 3.845 19.265 5.562 19.444 7.735 19.658 9.667 20.178 11.276 20.87 12.679 21.659 13.673 22.528 13.978 23.403 13.655 24.189 12.9 24.847"/><path d="M293.637-312h.726l1.64 17.421 3.054 16.329 5.106 16.048 7.69 15.698 10.455 15.148 12.971 14.349 14.829 13.364L365.9-191.19l15.953 11.94 15.335 12.024 13.728 12.634 11.034 13.481 7.613 14.242 4.364 14.704 2.29 14.887 1.852 14.926 2.642 14.889 3.598 14.807 3.357 14.833.203 15.03-5.479 14.677-9.377 13.773-9.165 13.791-5.942 14.545-1.526 15.012 2.35 14.892 3.909 14.677 1.993 14.919-2.701 15.438-7.978 15.358-12.371 13.542-15.219 11.226-16.322 9.104-16.267 7.889-15.973 7.907-15.75 9.035-15.192 10.892-13.761 13.035-11.027 15.145-6.921 16.809-2.061 17.655 2.358 17.677 5.211 17.323 5.991 17.165 4.333 17.473.419 17.792-3.999 17.504-6.997 16.834-8.429 16.276-9.133 15.836-9.832 15.159-10.25 13.965-9.446 12.839-8.442 12.905-8.077 14.31-6.908 16.113-5.069 17.323-3.991 17.691-3.806 17.442-3.541 16.892-2.535 16.347-.818 16.056.999 16.196 1.805 16.96 2.06 18.239 3.158 19.088 4.714 19.174 6.753 19.27 8.711 19.7 10.432 20.319 11.988 21.059 13.151 21.903 13.599 22.779 13.397 23.582L293.637 860"/><path d="M302.803-312h.521l1.246 17.426 2.523 16.344 4.517 16.083 7.125 15.763 9.989 15.245 12.635 14.467 14.614 13.495 15.651 12.588 15.828 12.084 15.162 12.185 13.438 12.816 10.576 13.671 6.982 14.411 3.662 14.829 1.721 14.973 1.647 14.992 2.96 14.917 4.505 14.752 4.85 14.691 2.141 14.984-3.637 14.939-8 14.206-7.945 14.19-4.601 14.814-.061 15.083 3.818 14.759 5.318 14.452 3.353 14.789-1.468 15.507-7.01 15.576-11.747 13.881-14.958 11.571-16.336 9.343-16.395 7.963-16.1 7.817-15.881 8.813-15.404 10.585-14.123 12.697-11.561 14.844-7.554 16.6-2.609 17.554 2.096 17.62 5.318 17.212 6.42 16.967 4.952 17.28 1 17.718-3.588 17.538-6.618 16.957-7.941 16.518-8.548 16.215-9.363 15.672-10.285 14.534-10.033 13.286-9.137 13.195-8.53 14.534-7.001 16.302-4.865 17.47-3.71 17.824-3.721 17.597-3.843 17.045-3.262 16.448-1.886 16.067-.252 16.121.637 16.86 1.257 18.137 2.537 18.924 3.883 18.922 5.72 18.906 7.656 19.229 9.459 19.768 11.157 20.444 12.484 21.251 13.091 22.12 13.026 22.941L302.803 860"/><path d="M312.359-312h.301l.822 17.429 1.943 16.357 3.852 16.116 6.466 15.827 9.408 15.347 12.178 14.599 14.279 13.645 15.396 12.749 15.59 12.256 14.869 12.377 13.026 13.025 9.995 13.878 6.244 14.587 2.876 14.955 1.094 15.058 1.395 15.062 3.224 14.954 5.335 14.685 6.244 14.5 4.04 14.835-1.692 15.103-6.462 14.58-6.582 14.542-3.161 15.022 1.44 15.074 5.264 14.537 6.679 14.135 4.696 14.573-.191 15.512-5.937 15.773-10.985 14.228-14.56 11.95-16.24 9.633-16.442 8.087-16.157 7.764-15.938 8.609-15.537 10.279-14.421 12.342-12.078 14.508-8.247 16.361-3.302 17.445 1.637 17.593 5.218 17.154 6.647 16.818 5.388 17.114 1.432 17.647-3.271 17.555-6.264 17.054-7.406 16.723-7.826 16.549-8.648 16.139-10.001 15.1-10.357 13.776-9.638 13.529-8.814 14.789-6.935 16.498-4.508 17.606-3.267 17.938-3.445 17.739-3.937 17.21-3.798 16.59-2.805 16.138-1.393 16.115-.423 16.822.576 18.07 2.009 18.783 3.085 18.707 4.648 18.585 6.493 18.803 8.324 19.252 10.12 19.851 11.591 20.614 12.348 21.465 12.433 22.303L312.359 860"/><path d="M321.654-312h.072l.38 17.431 1.336 16.366 3.156 16.145 5.773 15.89 8.801 15.449 11.708 14.74 13.948 13.812 15.161 12.934 15.373 12.457 14.589 12.596 12.602 13.255 9.383 14.099 5.459 14.765 2.042 15.072.423 15.139 1.106 15.138 3.454 14.995 6.113 14.616 7.557 14.27 5.863 14.592.267 15.156-4.872 14.878-5.182 14.832-1.7 15.158 2.938 14.982 6.68 14.23 8.003 13.735 6.012 14.275 1.085 15.45-4.852 15.939-10.207 14.568-14.162 12.348-16.175 9.959-16.547 8.248-16.283 7.737-16.056 8.42-15.723 9.964-14.778 11.959-12.679 14.133-9.074 16.077-4.183 17.321.969 17.594 4.928 17.163 6.712 16.744 5.662 17.002 1.697 17.597-3.112 17.565-6.032 17.123-6.935 16.891-7.095 16.826-7.824 16.546-9.513 15.629-10.477 14.278-9.997 13.89-8.986 15.055-6.768 16.694-4.064 17.723-2.719 18.026-3.024 17.862-3.848 17.38-4.133 16.761-3.527 16.263-2.348 16.176-1.296 16.848.077 18.042 1.631 18.671 2.418 18.538 3.661 18.33 5.367 18.445 7.184 18.801 9.047 19.321 10.637 20.027 11.536 20.859 11.779 21.699L321.654 860"/><path d="M331.722-312h-.167l-.082 17.431.693 16.372 2.407 16.169 5.002 15.948 8.099 15.55 11.131 14.887 13.513 13.993 14.823 13.138 15.057 12.681 14.204 12.838 12.069 13.504 8.665 14.325 4.585 14.938 1.142 15.179-.297 15.211.769 15.214 3.617 15.044 6.785 14.549 8.71 14.019 7.528 14.272 2.185 15.1-3.238 15.091-3.741 15.049-.242 15.219 4.372 14.811 7.987 13.852 9.198 13.27 7.23 13.911 2.319 15.325-3.746 16.068-9.358 14.887-13.665 12.749-16.019 10.305-16.583 8.433-16.349 7.728-16.108 8.231-15.838 9.634-15.074 11.541-13.261 13.701-9.966 15.739-5.23 17.163.056 17.615 4.381 17.242 6.545 16.765 5.721 16.963 1.756 17.585-3.12 17.572-5.906 17.169-6.518 17.022-6.358 17.049-6.905 16.88-8.802 16.099-10.328 14.762-10.127 14.253-8.978 15.319-6.474 16.876-3.524 17.825-2.078 18.093-2.463 17.966-3.556 17.543-4.221 16.949-3.986 16.431-3.041 16.299-1.914 16.928-.207 18.049 1.424 18.592 1.915 18.423 2.809 18.149 4.33 18.175 6.085 18.44 7.965 18.879 9.64 19.526 10.658 20.331 11.05 21.17L331.722 860"/><path d="M341.139-312h-.413l-.56 17.43.026 16.373 1.624 16.186 4.188 15.998 7.347 15.649 10.51 15.034 13.039 14.185 14.458 13.36 14.714 12.925 13.784 13.099 11.486 13.763 7.891 14.553 3.653 15.101.195 15.268-1.06 15.271.389 15.287 3.722 15.101 7.369 14.491 9.733 13.76 9.027 13.899 4.006 14.948-1.632 15.218-2.33 15.194 1.161 15.207 5.724 14.579 9.187 13.422 10.286 12.765 8.352 13.499 3.483 15.151-2.676 16.157-8.519 15.174-13.162 13.136-15.86 10.655-16.634 8.629-16.434 7.724-16.17 8.035-15.954 9.278-15.369 11.078-13.871 13.205-10.946 15.322-6.464 16.946-1.117 17.633 3.575 17.389 6.155 16.885 5.572 17.017 1.597 17.616-3.332 17.579-5.947 17.188-6.233 17.12-5.715 17.225-6.003 17.146-7.997 16.498-10.007 15.206-10.092 14.596-8.852 15.565-6.112 17.044-2.949 17.914-1.392 18.149-1.813 18.056-3.107 17.697-4.087 17.147-4.178 16.627-3.445 16.465-2.249 17.052-.253 18.09 1.425 18.55 1.64 18.364 2.191 18.048 3.507 17.998 5.174 18.182 7.043 18.543 8.776 19.135 9.89 19.909 10.423 20.74L341.139 860"/><path d="M349.677-312h-.669l-1.056 17.427-.665 16.369.808 16.195 3.341 16.041 6.565 15.738 9.865 15.182 12.558 14.382 14.098 13.593 14.379 13.185 13.36 13.372 10.881 14.03 7.075 14.777 2.672 15.247-.806 15.334-1.868 15.313-.041 15.358 3.776 15.162 7.888 14.448 10.654 13.515 10.38 13.501L478.583.885l-.093 15.265-.986 15.272 2.487 15.139 6.991 14.299 10.301 12.968 11.292 12.244 9.396 13.067 4.571 14.942-1.678 16.209-7.734 15.425-12.706 13.495-15.751 10.993-16.746 8.825-16.586 7.713-16.286 7.824-16.1 8.89-15.689 10.56-14.52 12.63-12.021 14.809-7.888 16.639-2.568 17.614 2.474 17.578 5.525 17.101 5.208 17.162 1.199 17.695-3.78 17.575L370.703 380l-6.127 17.188-5.227 17.365-5.209 17.358-7.194 16.827-9.595 15.593-9.952 14.904-8.66 15.785-5.733 17.194-2.374 18.004-.695 18.208-1.108 18.144-2.538 17.846-3.762 17.346-4.12 16.839-3.561 16.663-2.293 17.212-.053 18.162 1.655 18.55 1.631 18.363 1.873 18.023 2.995 17.914 4.565 18.029 6.413 18.321 8.188 18.864 9.385 19.609 10.045 20.429L349.677 860"/><path d="M357.945-312h-.928l-1.559 17.421-1.373 16.362-.043 16.195 2.43 16.071 5.687 15.821 9.101 15.322 11.945 14.58 13.601 13.834 13.907 13.456 12.798 13.655 10.147 14.296 6.149 14.989 1.616 15.369-1.845 15.375-2.709 15.335-.521 15.417 3.738 15.231 8.264 14.424 11.378 13.297 11.493 13.103 7.218 14.434 1.344 15.248.273 15.291 3.691 15.027 8.092 13.999 11.23 12.513 12.111 11.738 10.268 12.64 5.525 14.718-.756 16.232-6.956 15.634-12.195 13.817-15.555 11.307-16.763 9.004-16.644 7.692-16.292 7.588-16.113 8.467-15.857 9.982-15.029 11.968-13.03 14.177-9.386 16.207-4.267 17.512 1.027 17.77 4.557 17.392 4.545 17.39.526 17.805-4.438 17.553-6.591 17.136-6.169 17.228-4.885 17.48-4.526 17.534-6.401 17.097-9.064 15.92-9.652 15.167-8.351 15.97-5.312 17.334-1.807 18.106-.002 18.289-.369 18.246-1.859 18.001-3.243 17.547-3.79 17.062-3.361 16.88-2.032 17.4.388 18.271 2.107 18.599 1.898 18.419 1.884 18.071 2.825 17.92 4.299 17.979 6.115 18.217 7.909 18.717 9.165 19.439 9.933 20.244L357.945 860"/><path d="M368.646-312h-1.182l-2.057 17.414-2.079 16.348-.912 16.187 1.472 16.088 4.724 15.889 8.216 15.454 11.186 14.776 12.95 14.08 13.277 13.731 12.083 13.939 9.275 14.556 5.12 15.184.509 15.464-2.897 15.384-3.558 15.333-1.044 15.465 3.598 15.302 8.477 14.423 11.882 13.119 12.333 12.731 8.479 14.129 2.626 15.182 1.396 15.27 4.727 14.889 8.991 13.698 11.939 12.087 12.718 11.271 10.94 12.242 6.308 14.499.056 16.234-6.212 15.799-11.636 14.094-15.257 11.59-16.665 9.161-16.578 7.646-16.154 7.328-15.951 8.004-15.811 9.348-15.316 11.213-13.858 13.415-10.844 15.617-6.13 17.273-.752 17.907 3.221 17.72 3.55 17.673-.425 17.929-5.282 17.482-7.12 17.041-6.356 17.231-4.718 17.579-4.004 17.693-5.684 17.326-8.472 16.189-9.221 15.379-7.944 16.122-4.88 17.468-1.282 18.234.646 18.41.368 18.381-1.115 18.173-2.569 17.758-3.224 17.295-2.872 17.116-1.493 17.614 1.048 18.423 2.768 18.707 2.437 18.539 2.234 18.192 3.033 18.01 4.428 18.028 6.21 18.225 8.009 18.697 9.301 19.402 10.154 20.195L368.646 860"/><path d="M379.476-312h-1.431l-2.539 17.405-2.772 16.329-1.777 16.168.492 16.092 3.708 15.944 7.249 15.575 10.322 14.963 12.182 14.323 12.527 14.005 11.254 14.221 8.304 14.804 4.027 15.353-.626 15.528-3.941 15.359-4.403 15.303-1.599 15.499 3.366 15.373 8.539 14.447 12.201 12.99 12.937 12.405 9.489 13.826 3.72 15.086 2.352 15.223 5.578 14.744 9.692 13.421 12.462 11.708 13.145 10.866 11.433 11.898 6.919 14.303.731 16.22-5.546 15.926-11.084 14.323-14.912 11.83-16.494 9.288-16.427 7.578-15.912 7.041-15.635 7.507-15.565 8.661-15.354 10.374-14.443 12.519-12.152 14.841-8.053 16.846-2.801 17.923 1.528 18.022 2.227 17.975-1.639 18.022-6.276 17.34-7.757 16.874-6.696 17.191-4.751 17.662-3.693 17.846-5.118 17.525-7.899 16.411-8.72 15.542-7.497 16.244-4.479 17.602-.837 18.398 1.213 18.587 1.055 18.566-.357 18.38-1.802 17.987-2.483 17.544-2.153 17.374-.733 17.861 1.884 18.63 3.609 18.888 3.222 18.729 2.911 18.386 3.622 18.185 4.969 18.176 6.735 18.347 8.537 18.804 9.847 19.499 10.764 20.283L379.476 860"/><path d="M387.624-312h-1.689l-3.043 17.394-3.486 16.306-2.658 16.139-.496 16.083 2.698 15.979 6.3 15.681 9.495 15.14 11.46 14.557 11.828 14.276 10.459 14.49 7.351 15.035 2.928 15.496-1.783 15.555-5.026 15.297-5.299 15.244-2.211 15.513 3.087 15.44 8.575 14.497 12.509 12.915L462.13-8.821l10.391 13.545 4.667 14.981 3.164 15.164 6.32 14.611 10.337 13.183 12.979 11.395 13.593 10.537 11.916 11.624 7.454 14.146 1.27 16.202-5.044 16.017-10.704 14.502-14.73 12.025-16.479 9.385-16.418 7.483-15.775 6.73-15.372 6.983-15.301 7.934-15.305 9.468-14.891 11.5-13.352 13.875-10.011 16.184-5.077 17.747-.486 18.229.598 18.236-3.113 18.043L365.313 348l-8.557 16.617-7.251 17.091-5.049 17.719-3.664 17.996-4.802 17.71-7.488 16.587-8.294 15.664-7.122 16.337-4.192 17.739-.512 18.604 1.686 18.829 1.676 18.816.365 18.633-1.013 18.25-1.651 17.818-1.286 17.66.188 18.149 2.874 18.906 4.64 19.153 4.258 19.003 3.912 18.66 4.607 18.449 5.963 18.424 7.764 18.586 9.591 19.042 10.922 19.738 11.896 20.516L387.624 860"/><path d="M397.384-312h-1.941l-3.532 17.382-4.184 16.277-3.531 16.101-1.492 16.058 1.649 15.999 5.283 15.767 8.571 15.301 10.631 14.781 11.018 14.535 9.561 14.746 6.311 15.239 1.776 15.605-2.95 15.544-6.093 15.199-6.189 15.154-2.859 15.505 2.719 15.502 8.477 14.567 12.668 12.898L457.18-7.891l11.083 13.307 5.424 14.879 3.805 15.108 6.887 14.5L495.197 62.9l13.355 11.161 13.913 10.301 12.258 11.432 7.832 14.037 1.666 16.184-4.644 16.075-10.363 14.634L514.68 168.9l-16.414 9.448-16.348 7.367-15.545 6.404-14.961 6.443-14.808 7.188-14.933 8.518-14.942 10.389-14.158 12.735-11.738 15.269-7.417 17.314-2.784 18.264-1.336 18.387-4.771 17.944-8.637 16.711-9.346 16.249-7.893 16.913-5.535 17.735-3.868 18.134-4.693 17.88-7.159 16.726-7.845 15.746-6.732 16.406-3.972 17.878-.321 18.85 2.015 19.138 2.176 19.134 1.019 18.941-.226 18.553-.751 18.127-.301 17.984 1.218 18.492 3.937 19.26 5.762 19.517 5.441 19.369 5.142 19.026 5.878 18.807 7.293 18.78 9.153 18.95 11.009 19.419 12.343 20.121 13.354 20.902L397.384 860"/><path d="M407.344-312h-2.182l-3.998 17.368-4.854 16.244-4.376 16.054-2.48 16.02.579 16 4.209 15.833 7.563 15.444 9.7 14.989 10.095 14.775 8.565 14.982 5.197 15.415.592 15.677-4.106 15.492-7.123 15.065-7.053 15.031-3.532 15.472 2.265 15.554 8.244 14.657 12.676 12.934 14.133 11.833 11.573 13.122 5.986 14.795 4.262 15.063 7.277 14.422 11.134 12.874 13.591 11.012 14.108 10.159 12.461 11.328 8.051 13.982 1.911 16.174-4.351 16.107-10.064 14.719-14.315 12.284-16.299 9.483-16.206 7.236-15.222 6.069-14.402 5.905-14.079 6.446-14.212 7.562-14.522 9.23-14.43 11.464-13.023 14.115-9.6 16.584-5.217 18.052-3.48 18.366-6.497 17.678-9.707 16.18-10.011 15.763-8.538 16.638-6.163 17.689-4.291 18.242-4.783 18.024-6.917 16.825-7.367 15.794-6.321 16.453-3.824 18.01-.287 19.125 2.158 19.504 2.509 19.515 1.55 19.304.5 18.9.155 18.477.729 18.356 2.28 18.893 4.986 19.701 6.878 19.984 6.679 19.835 6.494 19.486 7.336 19.271 8.848 19.253 10.789 19.444 12.663 19.94 13.982 20.658 15.008 21.445L407.344 860"/><path d="M415.702-312h-2.411l-4.445 17.352-5.495 16.209-5.193 16-3.45 15.968-.495 15.981 3.106 15.878 6.5 15.564 8.695 15.175 9.099 14.998 7.499 15.189 4.039 15.558-.604 15.711-5.24 15.402-8.113 14.894-7.895 14.877-4.226 15.413 1.736 15.593 7.899 14.756 12.563 13.022 14.242 11.793 11.894 12.998 6.366 14.736 4.554 15.035 7.506 14.381 11.314 12.815 13.727 10.952 14.217 10.115 12.556 11.313 8.13 13.984 2.013 16.171-4.173 16.115-9.831 14.765-14.111 12.351-16.162 9.496-16.036 7.1-14.849 5.741-13.742 5.383-13.162 5.736-13.183 6.64-13.642 8.08-14.108 10.126-13.71 12.772-11.407 15.561-7.592 17.545-5.688 18.112-8.153 17.218-10.535 15.501-10.458 15.163-9.106 16.259-6.869 17.553-4.898 18.292-5.061 18.124-6.758 16.879-6.866 15.81-5.89 16.475-3.741 18.128-.419 19.407 2.091 19.905 2.636 19.941 1.914 19.71 1.119 19.287 1.006 18.867 1.734 18.774 3.296 19.354 5.946 20.224 7.905 20.551 7.873 20.401 7.872 20.046 8.87 19.84 10.513 19.845 12.546 20.074 14.431 20.607 15.712 21.348 16.726 22.141L415.702 860"/><path d="M424.485-312h-2.633l-4.872 17.336-6.109 16.169-5.981 15.94-4.393 15.904-1.56 15.945 1.988 15.899 5.398 15.662 7.637 15.337 8.045 15.194 6.384 15.367 2.849 15.665-1.799 15.705-6.342 15.272-9.063 14.688-8.716 14.694-4.938 15.326 1.14 15.614 7.455 14.864 12.349 13.152 14.255 11.824 12.075 12.94 6.582 14.707 4.685 15.026 7.595 14.378 11.381 12.821 13.781 10.975 14.261 10.166 12.562 11.384 8.082 14.04 1.981 16.176-4.108 16.103-9.67 14.772-13.931 12.389-16.026 9.494-15.86 6.968-14.459 5.433-13.023 4.899-12.11 5.078-11.897 5.791-12.339 7.001-13.18 8.808-13.693 11.325-12.632 14.288-9.689 16.73-7.786 17.601-9.587 16.557-11.003 14.697-10.586 14.47-9.504 15.774-7.566 17.309-5.626 18.256-5.481 18.158-6.652 16.877-6.327 15.794-5.419 16.475-3.704 18.215-.701 19.67 1.806 20.307 2.543 20.383 2.088 20.137 1.593 19.698 1.758 19.29 2.659 19.233 4.201 19.864 6.742 20.812 8.757 21.202 8.934 21.051 9.171 20.696 10.365 20.51 12.163 20.552 14.289 20.832 16.162 21.41 17.38 22.175 18.355 22.981L424.485 860"/><path d="M434.679-312h-2.845l-5.28 17.32-6.694 16.128-6.732 15.872-5.307 15.829-2.607 15.893.864 15.898 4.268 15.734 6.534 15.475 6.941 15.358 5.229 15.513 1.644 15.735-2.982 15.658-7.406 15.107-9.967 14.453-9.512 14.481-5.666 15.212.486 15.613 6.917 14.973 12.038 13.316L428.78-6.51l12.132 12.942 6.641 14.706 4.671 15.038 7.549 14.41 11.34 12.887 13.762 11.079 14.242 10.302 12.48 11.534 7.918 14.143 1.823 16.19-4.148 16.069-9.573 14.752-13.778 12.4-15.889 9.49-15.685 6.854-14.075 5.158-12.279 4.466-10.971 4.496-10.418 5.046-10.687 6.047-11.695 7.594-12.93 9.882-13.117 12.855-11.289 15.645-9.583 16.831-10.652 15.72-11.009 13.813-10.317 13.722-9.634 15.2-8.157 16.951-6.379 18.107-5.972 18.102-6.547 16.811-5.721 15.75-4.88 16.45-3.668 18.26-1.097 19.882 1.328 20.674 2.235 20.805 2.07 20.554 1.91 20.109 2.381 19.726 3.461 19.716 4.953 20.403 7.317 21.44 9.363 21.903 9.778 21.764 10.294 21.417 11.71 21.261 13.669 21.354 15.872 21.697 17.704 22.328 18.828 23.116 19.739 23.933L434.679 860"/><path d="M444.143-312h-3.024l-5.629 17.303-7.2 16.086-7.4 15.802-6.143 15.746-3.604 15.823-.252 15.877 3.098 15.779 5.359 15.582 5.759 15.495 4.017 15.623.428 15.765-4.115 15.574-8.369 14.908-10.75 14.192-10.209 14.244-6.359 15.07-.222 15.59 6.253 15.073 11.552 13.505 13.921 12.077 11.992 13.002 6.515 14.731 4.488 15.064 7.328 14.474 11.124 13.004 13.578 11.255 14.065 10.517 12.231 11.75 7.588 14.284 1.539 16.208-4.249 16.02-9.471 14.705-13.55 12.397-15.648 9.492-15.421 6.772-13.623 4.931-11.48 4.095-9.742 4.004-8.773 4.429-8.73 5.257-9.695 6.553-11.403 8.553-12.711 11.379-12.145 14.366-10.834 15.849-11.157 14.757-10.444 12.91-9.55 12.967-9.364 14.568-8.481 16.487-7.006 17.836-6.401 17.94-6.342 16.68-4.981 15.678-4.218 16.402-3.56 18.253-1.535 20.019.7 20.966 1.742 21.169 1.873 20.927 2.069 20.496 2.853 20.151 4.095 20.199 5.488 20.945 7.597 22.067 9.622 22.62 10.281 22.5 11.098 22.174 12.733 22.066 14.828 22.22 17.063 22.636 18.804 23.319 19.8 24.128 20.612 24.957L444.143 860"/><path d="M454.044-312h-3.215l-5.996 17.287-7.728 16.044-8.08 15.73-6.98 15.655-4.594 15.741-1.35 15.835 1.953 15.799 4.207 15.66 4.594 15.597 2.823 15.698-.771 15.756-5.244 15.454-9.342 14.682-11.557 13.91-10.946 13.986-7.103 14.901-.969 15.541 5.561 15.16 11.065 13.711 13.684 12.277 11.831 13.11 6.305 14.779 4.213 15.101 7.049 14.558 10.895 13.168 13.424 11.489 13.928 10.796 11.989 12.023 7.21 14.454 1.167 16.223-4.463 15.956-9.484 14.639-13.439 12.388-15.528 9.513-15.292 6.735-13.331 4.763-10.832 3.798-8.638 3.609-7.192 3.943-6.738 4.649-7.487 5.735-9.427 7.424-11.647 9.983-12.344 13.002-11.583 14.729-11.204 13.739-9.479 12.051-8.449 12.259-8.803 13.92-8.579 15.939-7.506 17.45-6.762 17.672-6.07 16.484-4.168 15.588-3.476 16.335-3.384 18.191-1.961 20.064.022 21.159 1.159 21.441 1.581 21.229 2.136 20.829 3.231 20.542 4.623 20.657 5.894 21.455 7.705 22.66 9.672 23.303 10.578 23.218 11.707 22.931 13.563 22.882 15.782 23.109 18.026 23.603 19.651 24.336 20.503 25.161 21.198 25.994L454.044 860"/><path d="M463.75-312h-3.386l-6.326 17.271-8.202 16.003-8.701 15.657-7.76 15.56-5.532 15.648-2.423 15.774.804 15.795 3.029 15.709 3.401 15.667 1.614 15.735-1.957 15.711-6.32 15.304-10.236 14.432-12.285 13.612-11.622 13.711-7.826 14.71-1.753 15.464 4.788 15.231 10.463 13.918 13.325 12.513 11.537 13.26 5.953 14.84 3.812 15.143 6.646 14.657 10.545 13.362 13.159 11.77 13.685 11.13 11.63 12.336 6.713 14.638.703 16.235-4.733 15.876-9.509 14.564-13.299 12.38-15.369 9.564-15.153 6.753-13.081 4.668-10.268 3.581-7.625 3.309-5.678 3.586-4.75 4.218-5.151 5.149-7.084 6.55-9.939 8.77-11.799 11.666-11.686 13.563-10.71 12.742-8.091 11.295-6.99 11.64-7.878 13.296-8.333 15.348-7.728 16.974-6.919 17.313-5.624 16.239-3.224 15.486-2.609 16.259-3.064 18.08-2.28 20.017-.627 21.234.556 21.603 1.25 21.438 2.147 21.092 3.525 20.878 5.039 21.067 6.158 21.91 7.616 23.177 9.47 23.913 10.604 23.88 12.027 23.644 14.075 23.668 16.375 23.978 18.577 24.548 20.053 25.324 20.736 26.156 21.299 26.993L463.75 860"/><path d="M472.998-312h-3.524l-6.591 17.256-8.59 15.964-9.22 15.585-8.44 15.463-6.389 15.547-3.442 15.699-.33 15.765 1.839 15.73 2.189 15.704.406 15.737-3.095 15.634-7.304 15.125-11.003 14.165-12.879 13.305-12.186 13.426-8.488 14.496-2.546 15.364 3.932 15.277 9.718 14.122 12.798 12.772L410.92 3.575l5.454 14.909 3.288 15.179 6.103 14.764 10.043 13.577 12.734 12.087 13.281 11.499 11.114 12.675 6.085 14.827.162 16.236-5.018 15.785-9.498 14.482-13.081 12.383-15.11 9.653-14.954 6.841-12.845 4.657-9.794 3.45-6.747 3.097-4.317 3.339-2.893 3.941-2.863 4.779-4.594 5.939-7.784 7.8-10.59 10.463-11.161 12.444-9.727 11.831-6.396 10.675-5.28 11.14-6.634 12.738-7.721 14.756-7.611 16.443-6.795 16.894-4.973 15.965-2.16 15.385-1.625 16.179-2.577 17.935-2.423 19.887-1.146 21.199.032 21.652.96 21.549 2.157 21.273 3.772 21.147 5.365 21.411 6.313 22.289 7.386 23.598 9.071 24.418 10.391 24.451 12.067 24.284 14.257 24.389 16.581 24.779 18.688 25.423 19.981 26.232 20.487 27.066 20.909 27.902L472.998 860"/><path d="M480.388-312h-3.629l-6.798 17.242-8.899 15.927-9.65 15.517-9.024 15.366-7.155 15.442-4.39 15.608-1.422 15.717.668 15.723.992 15.71-.768 15.708-4.168 15.526-8.187 14.924-11.652 13.888-13.352 12.994-12.648 13.135-9.089 14.265-3.328 15.237 3.028 15.299 8.864 14.312 12.133 13.044 10.454 13.637 4.835 14.976 2.666 15.209 5.453 14.865 9.415 13.801 12.179 12.424L449.66 85.39l10.466 13.024 5.358 15.008-.43 16.225-5.311 15.684-9.46 14.401-12.8 12.406-14.78 9.789-14.723 7.004-12.66 4.74-9.461 3.41-6.082 2.969-3.21 3.181-1.305 3.78-.811 4.577-2.206 5.566-5.468 7.091-8.953 9.456-10.165 11.445-8.428 11.057-4.59 10.204-3.486 10.769-5.208 12.269-6.827 14.204-7.176 15.906-6.395 16.447-4.149 15.685-1.032 15.293-.577 16.105-1.938 17.772-2.354 19.697-1.463 21.073-.33 21.603.786 21.571 2.231 21.376 4.026 21.345 5.66 21.683 6.435 22.583 7.129 23.911 8.604 24.806 10.061 24.912 11.937 24.824 14.213 25.012 16.512 25.484 18.486 26.188 19.583 27.025 19.922 27.852 20.204 28.683L480.388 860"/><path d="M490.023-312h-3.736l-7.006 17.231-9.211 15.893-10.075 15.451-9.591 15.273-7.892 15.333-5.301 15.509-2.471 15.652-.464 15.69-.167 15.688-1.902 15.649-5.2 15.392-9.038 14.707-12.285 13.607-13.829 12.688-13.125 12.841-9.702 14.024-4.122 15.087 2.116 15.294 8.002 14.481 11.443 13.318 9.8 13.842 4.153 15.037 1.987 15.222 4.759 14.955 8.758 14.024 11.603 12.769 12.189 12.298 9.79 13.371 4.595 15.171-1.062 16.197-5.646 15.578-9.468 14.326-12.571 12.452-14.509 9.977-14.584 7.253-12.645 4.926-9.378 3.467-5.725 2.921-2.446 3.09-.072 3.694.888 4.49-.112 5.374-3.267 6.623-7.195 8.673-8.966 10.612-7.056 10.436-2.868 9.876-1.779 10.516-3.769 11.901-5.802 13.724-6.545 15.398-5.815 16.013-3.231 15.422.109 15.217.49 16.041-1.197 17.608-2.093 19.477-1.556 20.883-.481 21.481.785 21.521 2.43 21.416 4.367 21.474 6.027 21.885 6.65 22.794 6.999 24.121 8.256 25.075 9.814 25.259 11.845 25.255 14.181 25.523 16.432 26.068 18.266 26.827 19.186 27.674 19.374 28.495 19.537 29.319L490.023 860"/><path d="M499.658-312h-3.844l-7.215 17.221-9.521 15.862-10.495 15.394-10.144 15.184-8.605 15.224-6.177 15.405-3.485 15.569-1.562 15.638-1.295 15.641-3.001 15.563-6.198 15.239-9.863 14.479-12.904 13.328-14.311 12.391-13.612 12.555-10.327 13.772-4.925 14.919 1.198 15.261 7.117 14.625 10.718 13.585 9.092 14.047 3.41 15.08 1.252 15.216 4.02 15.027 8.059 14.236 10.995 13.111 11.601 12.699 9.075 13.701 3.793 15.307-1.724 16.154-6.014 15.466-9.508 14.262-12.376 12.529-14.277 10.22-14.517 7.59-12.777 5.224-9.541 3.632-5.694 2.955-2.05 3.05.764 3.649 2.19 4.46 1.61 5.297-1.325 6.342-5.489 8.106-7.718 9.962-5.742 9.974-1.328 9.661-.246 10.356-2.402 11.632-4.733 13.33-5.78 14.954-5.097 15.62-2.258 15.193 1.228 15.156 1.545 15.991-.379 17.456-1.657 19.252-1.419 20.666-.404 21.313.977 21.426 2.785 21.404 4.831 21.551 6.504 22.021 7.008 22.932 7.065 24.24 8.112 25.238 9.733 25.5 11.884 25.577 14.251 25.92 16.449 26.525 18.152 27.325 18.919 28.178 18.985 28.989 19.054 29.805L499.658 860"/><path d="M510.498-312h-3.91l-7.35 17.212-9.732 15.838-10.801 15.342-10.578 15.102-9.201 15.121-6.955 15.295-4.424 15.477-2.603 15.567-2.37 15.57-4.031 15.459-7.093 15.07-10.555 14.25-13.38 13.055-14.649 12.109-13.972 12.277-10.853 13.521-5.678 14.734.267 15.202 6.148 14.742 9.85 13.833 8.239 14.242 2.579 15.106.462 15.185 3.199 15.077 7.245 14.427 10.241 13.439 10.858 13.085 8.23 14.005 2.922 15.412-2.388 16.092-6.336 15.354-9.48 14.214-12.08 12.634-13.922 10.518-14.353 8.02-12.901 5.641-9.837 3.916-5.936 3.079-2.031 3.059 1.169 3.619 3.028 4.444 2.879 5.272.261 6.187-3.944 7.72-6.495 9.49-4.551 9.652-.05 9.53 1.038 10.261-1.173 11.443-3.665 13.03-4.907 14.591-4.26 15.289-1.261 15.001 2.273 15.11 2.534 15.949.472 17.327-1.064 19.045-1.058 20.446-.101 21.133 1.359 21.307 3.271 21.362 5.381 21.582 7.054 22.101 7.473 23.008 7.301 24.287 8.154 25.315 9.797 25.647 12.011 25.801 14.371 26.205 16.5 26.859 18.078 27.686 18.716 28.541 18.699 29.341 18.706 30.152L510.498 860"/><path d="M520.133-312h-3.953l-7.439 17.206-9.885 15.819-11.04 15.298-10.935 15.028-9.716 15.021-7.652 15.188-5.286 15.377-3.58 15.483-3.382 15.483-4.985 15.336-7.901 14.894-11.156 14.02-13.769 12.798-14.914 11.848-14.261 12.016-11.32 13.27-6.389 14.539-.649 15.119 5.149 14.83 8.901 14.06 7.3 14.418 1.697 15.107-.359 15.13 2.339 15.099 6.366 14.594 9.402 13.743 10.026 13.445 7.314 14.275 2.025 15.479-3.043 16.014-6.636 15.244-9.417 14.185-11.74 12.772-13.508 10.868-14.132 8.534-13.041 6.182-10.276 4.335-6.458 3.311-2.403 3.127 1.117 3.598 3.381 4.411 3.656 5.249 1.394 6.102-2.717 7.478-5.469 9.175-3.613 9.449.884 9.449 2.006 10.201-.177 11.316-2.712 12.815-4.042 14.316-3.406 15.029-.321 14.852 3.2 15.066 3.423 15.911 1.305 17.219-.375 18.869-.519 20.249.397 20.959 1.911 21.183 3.894 21.299 6.037 21.579 7.714 22.133 8.089 23.032 7.764 24.278 8.457 25.325 10.1 25.719 12.338 25.935 14.681 26.389 16.745 27.076 18.224 27.921 18.781 28.772 18.716 29.567 18.7 30.376L520.133 860"/><path d="M528.564-312h-3.979l-7.498 17.202-9.998 15.804-11.231 15.261-11.237 14.963-10.17 14.931-8.281 15.08-6.088 15.274-4.498 15.387-4.334 15.381-5.874 15.202-8.639 14.71-11.685 13.798-14.097 12.557-15.131 11.608-14.506 11.775-11.741 13.026-7.061 14.335-1.541 15.016 4.14 14.887 7.899 14.26 6.301 14.569.784 15.081-1.191 15.048 1.458 15.093 5.448 14.729 8.508 14.016 9.132 13.771 6.357 14.501 1.121 15.507-3.677 15.923-6.911 15.14-9.331 14.174-11.374 12.94-13.047 11.264-13.853 9.128-13.164 6.842-10.812 4.9-7.228 3.674-3.149 3.279.613 3.601 3.243 4.359 3.932 5.203 2.04 6.045-1.887 7.338-4.73 8.997-2.996 9.345 1.444 9.399 2.621 10.152.536 11.236-1.94 12.676-3.267 14.128-2.609 14.841.508 14.739 3.979 15.022 4.184 15.867 2.08 17.134.362 18.73.153 20.085 1.054 20.806 2.607 21.064 4.633 21.226 6.802 21.546 8.488 22.123 8.871 23.011 8.467 24.225 9.051 25.281 10.68 25.724 12.923 25.993 15.246 26.478 17.27 27.185 18.691 28.035 19.209 28.885 19.145 29.677 19.152 30.488L528.564 860"/><path d="M536.995-312h-4.001l-7.552 17.199-10.103 15.792-11.419 15.229-11.534 14.903-10.615 14.837-8.906 14.971-6.885 15.158-5.418 15.275-5.287 15.259-6.761 15.049-9.363 14.514-12.198 13.568-14.415 12.321-15.34 11.38-14.742 11.543-12.141 12.785-7.709 14.122-2.41 14.892 3.13 14.91 6.871 14.423 5.277 14.685-.132 15.023-2.016 14.938.581 15.053 4.524 14.825 7.592 14.245 8.22 14.049 5.404 14.672.254 15.499-4.269 15.827-7.16 15.052-9.24 14.188-11.005 13.133-12.56 11.687-13.516 9.773-13.233 7.598-11.37 5.604-8.152 4.186-4.194 3.55-.298 3.666 2.652 4.312 3.734 5.142 2.219 6.003-1.465 7.28-4.304 8.937-2.705 9.33 1.639 9.373 2.891 10.114.951 11.195-1.396 12.614-2.638 14.029-1.936 14.735 1.171 14.667 4.574 14.974 4.788 15.821 2.769 17.073 1.111 18.636.917 19.967 1.831 20.689 3.417 20.965 5.47 21.152 7.658 21.489 9.376 22.075 9.811 22.95 9.412 24.138 9.945 25.199 11.563 25.68 13.802 25.98 16.118 26.479 18.133 27.191 19.549 28.036 20.086 28.883 20.075 29.681 20.158 30.497L536.995 860"/><path d="M546.63-312h-4.006l-7.572 17.196-10.171 15.783-11.56 15.202-11.786 14.845-11.017 14.749-9.488 14.856-7.653 15.032-6.319 15.147-6.221 15.119-7.612 14.877-10.038 14.305-12.653 13.335-14.67 12.09-15.492 11.166-14.917 11.327-12.48 12.552-8.298 13.903-3.242 14.747 2.123 14.902 5.805 14.547 4.223 14.763-1.035 14.935-2.816 14.801-.278 14.981 3.587 14.881 6.646 14.428 7.273 14.276 4.452 14.787-.565 15.456-4.796 15.735-7.358 14.982-9.113 14.224-10.6 13.343-12.012 12.125-13.066 10.446-13.158 8.426-11.831 6.428-9.102 4.855-5.422 3.968-1.533 3.832 1.649 4.309 3.096 5.088 1.965 5.979-1.416 7.291-4.159 8.979-2.696 9.396 1.501 9.376 2.831 10.088 1.079 11.19-1.068 12.612-2.158 14.006-1.396 14.695 1.652 14.627 4.966 14.921 5.222 15.769 3.351 17.027 1.84 18.577 1.725 19.887 2.681 20.599 4.288 20.88 6.348 21.069 8.548 21.408 10.31 21.987 10.838 22.849 10.517 24.015 11.05 25.078 12.66 25.587 14.884 25.903 17.197 26.399 19.233 27.099 20.686 27.936 21.289 28.779 21.38 29.586 21.592 30.413L546.63 860"/><path d="M556.265-312h-4.015l-7.605 17.196-10.252 15.778-11.723 15.179-12.056 14.793-11.43 14.663-10.079 14.739-8.423 14.902-7.219 15.005-7.153 14.963-8.463 14.692-10.713 14.089-13.114 13.104-14.952 11.871-15.678 10.97-15.12 11.131-12.825 12.333-8.871 13.684-4.048 14.587 1.144 14.866 4.753 14.634 3.182 14.802-1.92 14.818-3.593 14.644-1.111 14.882 2.678 14.897 5.717 14.565 6.35 14.45 3.543 14.855-1.332 15.385-5.29 15.646-7.548 14.93-9.007 14.28-10.23 13.567-11.477 12.566-12.578 11.127-12.997 9.296-12.199 7.352-10.028 5.669-6.757 4.55-3.003 4.139.315 4.395 2.089 5.077 1.338 5.992-1.704 7.369-4.278 9.114-2.943 9.541 1.078 9.418 2.494 10.086.958 11.22-.939 12.665-1.83 14.043-.994 14.705 1.969 14.611 5.193 14.863 5.517 15.708 3.842 16.992 2.541 18.538 2.562 19.827 3.583 20.523 5.206 20.793 7.273 20.974 9.488 21.293 11.312 21.853 11.972 22.7 11.778 23.848 12.364 24.909 13.983 25.439 16.195 25.759 18.525 26.238 20.61 26.919 22.139 27.734 22.858 28.574 23.097 29.395 23.487 30.229L556.265 860"/><path d="M567.105-312h-3.992l-7.575 17.198-10.256 15.775-11.795 15.163-12.232 14.75-11.75 14.583-10.576 14.628-9.11 14.765-8.04 14.854-8.007 14.796-9.224 14.498-11.282 13.869-13.466 12.883-15.12 11.672-15.757 10.799-15.215 10.96-13.059 12.132-9.347 13.473-4.778 14.421.193 14.802 3.685 14.684 2.138 14.806-2.758 14.681-4.306 14.47-1.901 14.761 1.779 14.879 4.77 14.66 5.405 14.575 2.653 14.878-2.032 15.291-5.699 15.567-7.664 14.895-8.843 14.355-9.803 13.795-10.861 13.002-11.947 11.799-12.617 10.179-12.319 8.342-10.756 6.612-8.018 5.297-4.574 4.614-1.261 4.61.758 5.152.386 6.068-2.256 7.521-4.567 9.338-3.357 9.768.413 9.518 1.896 10.121.623 11.293-.969 12.765-1.615 14.128-.708 14.755 2.125 14.613 5.219 14.802 5.632 15.643 4.211 16.958 3.182 18.505 3.382 19.772 4.474 20.445 6.101 20.693 8.146 20.85 10.359 21.14 12.241 21.668 13.049 22.495 13.032 23.626 13.706 24.685 15.338 25.228 17.521 25.542 19.861 25.995 21.995 26.642 23.62 27.433 24.482 28.267 24.912 29.1 25.518 29.94L567.105 860"/><path d="M575.536-312h-3.965l-7.542 17.201-10.255 15.777-11.865 15.156-12.404 14.716-12.057 14.513-11.054 14.52-9.765 14.63-8.828 14.701-8.825 14.621-9.947 14.299-11.825 13.656-13.803 12.675-15.293 11.496-15.85 10.661-15.317 10.822L383.657-90.6l-9.786 13.277-5.459 14.252-.707 14.72 2.655 14.701 1.13 14.779-3.549 14.528-4.977 14.289-2.644 14.624.926 14.833 3.86 14.713 4.501 14.658 1.818 14.863-2.668 15.186-6.064 15.496-7.768 14.878-8.691 14.441-9.402 14.028-10.258 13.422-11.281 12.445-12.125 11.051-12.256 9.362-11.29 7.648-9.154 6.198-6.141 5.264-2.968 4.991-.791 5.35-.806 6.235-3.014 7.759-4.997 9.648-3.893 10.076-.424 9.688 1.11 10.213.128 11.416-1.123 12.909-1.498 14.249-.521 14.834 2.152 14.633 5.103 14.743 5.621 15.576 4.49 16.922 3.776 18.469 4.186 19.707 5.355 20.348 6.982 20.569 8.995 20.691 11.197 20.941 13.136 21.429 14.112 22.227 14.301 23.342 15.099 24.394 16.756 24.942 18.918 25.248 21.261 25.666 23.457 26.274 25.195 27.032 26.23 27.856 26.882 28.697 27.739 29.537L575.536 860"/><path d="M585.171-312h-3.914l-7.464 17.205-10.196 15.786-11.869 15.155-12.505 14.692-12.29 14.455-11.449 14.423-10.336 14.501-9.527 14.547-9.553 14.446-10.578 14.106-12.275 13.455-14.055 12.489-15.393 11.352-15.878 10.558-15.354 10.72-13.425 11.813-10.139 13.101-6.058 14.088-1.544 14.626 1.661 14.69.17 14.727-4.274 14.369-5.574 14.109-3.318 14.478.119 14.765 2.981 14.734 3.626 14.703 1.038 14.821-3.225 15.073-6.355 15.436L350.4 126.3l-8.509 14.539-8.981 14.257-9.625 13.819-10.535 13.053-11.469 11.884-11.946 10.38-11.533 8.739-10.029 7.219-7.556 6.085-4.672 5.548-2.452 5.697-2.15 6.517-3.886 8.091-5.473 10.04-4.464 10.464-1.357 9.94.196 10.374-.476 11.593-1.352 13.093-1.443 14.401-.406 14.933 2.068 14.667 4.839 14.695 5.469 15.511 4.669 16.881 4.302 18.421 4.934 19.618 6.18 20.224 7.786 20.409 9.744 20.493 11.913 20.695 13.894 21.133 15.036 21.898 15.454 22.99 16.396 24.028 18.084 24.582 20.21 24.873 22.545 25.252 24.789 25.813 26.636 26.534 27.859 27.343 28.758 28.182 29.881 29.013L585.171 860"/><path d="M593.602-312h-3.853l-7.365 17.212-10.114 15.797-11.846 15.164-12.576 14.683-12.483 14.412-11.798 14.34-10.848 14.381-10.162 14.4-10.212 14.277-11.145 13.922-12.672 13.272-14.271 12.332-15.474 11.244-15.897 10.496-15.372 10.661L393.979-93.7l-10.437 12.952-6.585 13.939-2.312 14.525.728 14.661-.729 14.655-4.931 14.21-6.107 13.937-3.929 14.334-.624 14.684 2.156 14.728 2.806 14.718.328 14.761-3.711 14.96-6.594 15.389-7.842 14.89-8.322 14.646-8.576 14.477-9.004 14.189-9.767 13.613-10.717 12.661-11.442 11.357-11.503 9.841-10.614 8.32-8.74 7.047-6.258 6.278-4.112 6.206-3.549 6.929-4.803 8.519-5.946 10.505-5.012 10.923-2.313 10.277-.775 10.614-1.125 11.826-1.617 13.312-1.421 14.573-.342 15.044 1.906 14.718 4.473 14.663 5.222 15.455 4.769 16.833 4.766 18.351L247 454.322l6.942 20.061 8.513 20.212 10.398 20.253 12.513 20.404 14.523 20.784 15.823 21.509 16.479 22.568 17.581 23.592 19.307 24.143 21.398 24.421 23.709 24.759 25.987 25.269 27.942 25.946 29.355 26.734 30.518 27.561 31.91 28.368L593.602 860"/><path d="M603.237-312h-3.765l-7.22 17.22-9.963 15.814-11.747 15.184-12.566 14.686-12.59 14.384-12.048 14.274-11.258 14.277-10.687 14.264-10.755 14.122-11.6 13.756-12.965 13.114-14.396 12.21-15.475 11.177-15.842 10.48-15.315 10.648-13.557 11.643-10.638 12.836-7.017 13.81-2.991 14.428-.134 14.617-1.551 14.575-5.496 14.06-6.547 13.783-4.455 14.198-1.294 14.598 1.388 14.704 2.042 14.712-.308 14.69-4.11 14.856-6.754 15.354-7.809 14.917-8.1 14.754-8.152 14.688-8.367 14.527-8.957 14.116-9.853 13.366-10.73 12.269-11.168 10.912-10.836 9.452-9.58 8.109-7.596 7.155-5.641 6.872-4.89 7.469-5.667 9.04-6.333 11.027-5.459 11.439-3.204 10.697-1.726 10.931-1.762 12.112-1.869 13.562-1.406 14.755-.302 15.164 1.689 14.782 4.019 14.652 4.88 15.411 4.788 16.781 5.146 18.257 6.224 19.349 7.591 19.863 9.107 19.974 10.894 19.974 12.928 20.071 14.933 20.395 16.374 21.066 17.263 22.088 18.525 23.084 20.291 23.634 22.334 23.897 24.598 24.196 26.883 24.654 28.923 25.283 30.524 26.038 31.939 26.843 33.586 27.612L603.237 860"/><path d="M612.872-312h-3.682l-7.081 17.231-9.825 15.836-11.665 15.212-12.572 14.704-12.708 14.374-12.299 14.227-11.649 14.192-11.182 14.148-11.271 13.986-12.035 13.613-13.258 12.989-14.543 12.126-15.521 11.156-15.841 10.514-15.302 10.684-13.6 11.624-10.825 12.76-7.402 13.705-3.601 14.341-.92 14.568-2.298 14.495-6.007 13.927-6.946 13.654-4.926 14.079-1.895 14.513.698 14.672 1.357 14.694-.867 14.619-4.453 14.765-6.894 15.33-7.781 14.953-7.907 14.866-7.773 14.885-7.785 14.829-8.191 14.56-8.988 13.99-9.933 13.092-10.647 11.916-10.785 10.566-10.112 9.22-8.664 8.141-6.983 7.671-6.122 8.127-6.452 9.639-6.639 11.59-5.799 11.993-3.994 11.186-2.608 11.318-2.347 12.444-2.092 13.831-1.38 14.941-.274 15.286 1.455 14.86 3.543 14.665 4.512 15.382 4.772 16.721 5.482 18.139 6.764 19.164 8.171 19.625 9.623 19.701 11.305 19.66 13.244 19.709 15.227 19.971 16.794 20.585L329.4 613.52l19.333 22.521 21.146 23.064 23.151 23.315 25.363 23.577 27.645 23.982 29.759 24.56 31.537 25.276 33.2 26.042 35.081 26.764L612.872 860"/><path d="M623.712-312h-3.572l-6.891 17.242-9.619 15.864-11.502 15.249-12.489 14.737-12.731 14.385-12.449 14.202-11.931 14.13-11.56 14.056-11.666 13.872-12.355 13.501-13.445 12.9-14.597 12.086-15.483 11.185-15.761 10.6-15.206 10.771-13.55 11.655-10.914 12.724-7.684 13.633-4.112 14.27-1.614 14.52-2.952 14.42-6.42 13.822-7.246 13.555-5.304 13.984-2.412 14.439.08 14.637.743 14.672-1.344 14.557-4.711 14.691-6.954 15.319-7.694 14.999-7.673 14.974-7.374 15.064-7.196 15.095-7.408 14.942-8.07 14.527-9.003 13.815-9.892 12.825-10.401 11.617-10.253 10.328-9.347 9.188-8.023 8.57-7.129 8.877-7.058 10.293-6.778 12.173-5.958 12.565-4.608 11.722-3.348 11.763-2.826 12.81-2.245 14.109-1.323 15.122-.238 15.405 1.216 14.948 3.043 14.701 4.102 15.371 4.697 16.657 5.729 17.999 7.182 18.947 8.61 19.355 9.977 19.396 11.531 19.325 13.347 19.324 15.279 19.528 16.932 20.078 18.243 20.991 19.821 21.916 21.678 22.447 23.634 22.689 25.775 22.916 28.022 23.274 30.179 23.798 32.107 24.465 33.982 25.181 36.056 25.843L623.712 860"/><path d="M632.142-312h-3.428l-6.637 17.255-9.322 15.894-11.227 15.296-12.288 14.785-12.628 14.415-12.465 14.203-12.069 14.093-11.789 13.99-11.91 13.791-12.527 13.424-13.492 12.85-14.52 12.094-15.323 11.264-15.558 10.737-14.986 10.911-13.375 11.735-10.874 12.733-7.842 13.595-4.507 14.221-2.205 14.483-3.492 14.36-6.709 13.746-7.43 13.493-5.57 13.919-2.831 14.383-.455 14.608.207 14.653-1.731 14.508-4.866 14.642-6.922 15.316-7.529 15.051-7.381 15.079-6.941 15.225-6.588 15.321-6.612 15.261-7.109 14.977-7.973 14.43-8.939 13.62-9.711 12.575-9.999 11.385-9.611 10.244-8.68 9.523-7.833 9.689-7.426 10.981-6.719 12.752-5.911 13.128-4.992 12.284-3.897 12.243-3.16 13.196-2.303 14.385-1.224 15.293-.186 15.516.99 15.043 2.545 14.762 3.67 15.373 4.561 16.589 5.87 17.84 7.454 18.703 8.87 19.06 10.137 19.072 11.542 18.97 13.212 18.932 15.051 19.079 16.749 19.562 18.222 20.408 19.925 21.283 21.809 21.802 23.708 22.034 25.754 22.235 27.935 22.546 30.098 23.017 32.131 23.628 34.166 24.283 36.368 24.873L632.142 860"/><path d="M640.573-312h-3.282l-6.378 17.269-9.013 15.929-10.941 15.351-12.07 14.847-12.506 14.465-12.451 14.226-12.17 14.086-11.968 13.954-12.102 13.743-12.656 13.384-13.514 12.848-14.436 12.148-15.165 11.394-15.363 10.926-14.766 11.101-13.185 11.865-10.8 12.788-7.94 13.595-4.824 14.197-2.702 14.461-3.945 14.319-6.933 13.708-7.555 13.472-5.77 13.887-3.172 14.348-.907 14.592-.244 14.642-2.04 14.482-4.963 14.616-6.857 15.323-7.35 15.106-7.096 15.178-6.529 15.364-6.026 15.509-5.871 15.522-6.198 15.34-6.952 14.936-7.925 14.291-8.864 13.414-9.487 12.353-9.55 11.263-9.018 10.485-8.273 10.525-7.598 11.674-6.521 13.307-5.711 13.663-5.181 12.848-4.262 12.739-3.361 13.583-2.284 14.651-1.09 15.447-.117 15.613.799 15.141 2.096 14.839 3.268 15.39 4.417 16.519 5.953 17.664 7.638 18.441 9.03 18.747 10.187 18.734 11.442 18.611 12.961 18.541 14.69 18.637 16.403 19.05 18.004 19.824 19.815 20.643 21.726 21.143 23.575 21.37 25.527 21.547 27.631 21.818 29.781 22.234 31.888 22.785 34.039 23.368 36.32 23.886L640.573 860"/><path d="M651.413-312h-3.123l-6.089 17.285-8.66 15.966-10.597 15.412-11.788 14.921-12.312 14.535-12.363 14.275-12.182 14.106-12.056 13.952-12.199 13.731-12.701 13.387-13.461 12.885-14.284 12.252-14.948 11.574-15.106 11.166-14.484 11.341-12.93 12.04-10.647 12.886-7.954 13.635-5.045 14.201-3.1 14.459-4.297 14.304L414.02-9.98l-7.599 13.492-5.887 13.891-3.428 14.341-1.273 14.593-.613 14.647-2.268 14.477-4.989 14.616-6.733 15.338-7.129 15.164-6.783 15.267-6.117 15.48-5.479 15.66-5.165 15.724-5.322 15.626-5.939 15.335-6.865 14.837-7.883 14.122-8.742 13.207-9.178 12.203-9.02 11.414-8.421 11.351-7.554 12.346-6.172 13.821-5.356 14.151-5.164 13.387-4.43 13.228-3.418 13.959-2.182 14.894-.922 15.579-.028 15.696.648 15.237 1.701 14.928 2.896 15.417 4.25 16.446 5.962 17.48 7.71 18.166 9.055 18.423 10.099 18.391 11.202 18.256 12.559 18.16 14.162 18.214 15.852 18.558 17.542 19.252 19.434 20.013 21.36 20.487 23.16 20.709 25.015 20.868 27.027 21.103 29.137 21.468 31.279 21.952 33.489 22.464 35.791 22.903L651.413 860"/><path d="M661.048-312h-2.954l-5.782 17.3-8.28 16.006-10.214 15.479-11.46 15.007-12.069 14.622-12.215 14.348-12.131 14.155-12.07 13.982-12.226 13.757-12.678 13.429-13.351 12.97-14.089 12.401-14.689 11.801-14.806 11.45-14.156 11.625-12.624 12.26-10.439 13.026-7.895 13.71-5.183 14.237-3.406 14.478-4.56 14.316-7.124 13.746-7.574 13.554-5.933 13.933-3.605 14.361-1.558 14.612-.903 14.669-2.422 14.501-4.955 14.639-6.563 15.358-6.877 15.221-6.459 15.345-5.706 15.575-4.961 15.775-4.504 15.873-4.501 15.835-4.974 15.638-5.811 15.265-6.838 14.696-7.847 13.929-8.57 13.038-8.742 12.276-8.312 12.135-7.321 12.973-5.709 14.278-4.883 14.579-4.97 13.884-4.421 13.692-3.347 14.306-2.013 15.11-.728 15.687.078 15.76.536 15.327 1.369 15.023 2.566 15.45 4.075 16.37 5.914 17.287 7.684 17.886 8.972 18.1 9.899 18.052 10.854 17.91 12.05 17.8 13.514 17.814 15.152 18.096 16.893 18.707 18.837 19.402 20.771 19.851 22.521 20.066 24.286 20.21 26.199 20.414 28.249 20.73 30.387 21.15 32.605 21.584 34.876 21.949L661.048 860"/><path d="M669.479-312h-2.767l-5.435 17.316-7.835 16.046-9.748 15.551-11.035 15.102-11.716 14.723-11.956 14.441-11.958 14.234-11.959 14.045-12.126 13.82-12.531 13.51-13.126 13.097-13.779 12.593-14.315 12.07-14.389 11.776-13.714 11.943-12.21 12.518-10.125 13.205-7.734 13.82-5.219 14.299-3.607 14.522-4.711 14.357-7.077 13.823-7.449 13.655-5.884 14.01-3.692 14.409-1.758 14.652-1.115 14.711-2.497 14.549-4.839 14.686-6.322 15.381-6.564 15.275-6.091 15.413-5.275 15.648-4.446 15.855-3.873 15.975-3.725 15.979-4.05 15.853-4.771 15.58-5.756 15.14-6.832 14.519-7.752 13.749-8.199 13.044-7.946 12.851-6.9 13.54-5.131 14.668-4.308 14.939-4.612 14.323-4.237 14.114-3.157 14.617-1.779 15.292-.514 15.767.191 15.806.463 15.407 1.096 15.118 2.27 15.483 3.876 16.292 5.782 17.092 7.538 17.607 8.748 17.781 9.558 17.724 10.367 17.581 11.401 17.461 12.715 17.449 14.266 17.669 16.013 18.199 17.973 18.825 19.894 19.244 21.592 19.45 23.259 19.584 25.064 19.76 27.028 20.032 29.115 20.386 31.286 20.748 33.467 21.042L669.479 860"/><path d="M679.114-312h-2.576l-5.077 17.331-7.37 16.087-9.251 15.625-10.566 15.203-11.317 14.838-11.637 14.553-11.724 14.336-11.78 14.139-11.958 13.917-12.322 13.629-12.842 13.262-13.418 12.824-13.891 12.374-13.918 12.132-13.222 12.296-11.747 12.806-9.757 13.412-7.511 13.961-5.18 14.39-3.724 14.588-4.783 14.425-6.962 13.935-7.264 13.791-5.771 14.117-3.709 14.486-1.888 14.712-1.254 14.772-2.51 14.62-4.676 14.752-6.042 15.406-6.225 15.325-5.709 15.47-4.851 15.697-3.959 15.905-3.292 16.033-3.021 16.064-3.206 15.991-3.802 15.799-4.711 15.468-5.79 14.976-6.834 14.334-7.495 13.701-7.409 13.482-6.36 14.034-4.504 14.99-3.683 15.226-4.152 14.694-3.935 14.483-2.882 14.883-1.511 15.438-.298 15.82.309 15.834.423 15.473.885 15.207 2.019 15.513 3.674 16.212 5.6 16.899 7.316 17.334 8.44 17.473 9.139 17.412 9.81 17.272 10.693 17.151L400 631.428l13.301 17.285 15.018 17.734 16.969 18.289 18.863 18.675 20.51 18.873 22.086 18.996 23.781 19.148 25.649 19.378 27.654 19.672 29.736 19.965 31.793 20.198L679.114 860"/><path d="M687.545-312h-2.378l-4.706 17.346-6.877 16.127-8.709 15.699-10.041 15.307-10.847 14.962-11.245 14.682-11.406 14.459-11.515 14.259-11.702 14.044-12.03 13.782-12.48 13.46-12.98 13.085-13.387 12.706-13.371 12.514L521.219-96.9l-11.213 13.117-9.324 13.645-7.218 14.125-5.066 14.502-3.759 14.676-4.771 14.518-6.771 14.077-7.012 13.957-5.591 14.251-3.658 14.583-1.949 14.792-1.329 14.849-2.461 14.713-4.459 14.834-5.718 15.429-5.854 15.37-5.308 15.512-4.423 15.73-3.494 15.925-2.757 16.054-2.383 16.101-2.443 16.065-2.914 15.935-3.722 15.692-4.763 15.313-5.862 14.792-6.674 14.245-6.742 14.017-5.726 14.448-3.849 15.241-3.041 15.444-3.617 14.996-3.541 14.791-2.548 15.102-1.225 15.549-.086 15.847.423 15.842.408 15.524.726 15.284 1.804 15.539 3.463 16.131 5.367 16.709 7.016 17.073 8.048 17.18 8.637 17.119 9.187 16.988 9.927 16.868 10.938 16.821 12.264 16.943 13.919 17.317 15.829 17.801 17.681 18.151 19.273 18.337 20.763 18.452 22.35 18.583 24.105 18.776 26.001 19.014 27.957 19.244 29.863 19.424L687.545 860"/><path d="M698.384-312h-2.172l-4.314 17.359-6.348 16.167-8.109 15.77-9.439 15.413-10.291 15.091-10.752 14.821-10.985 14.6-11.139 14.402-11.333 14.197-11.626 13.961-12.012 13.684-12.434 13.369-12.775 13.059-12.709 12.908-11.981 13.052-10.591 13.44-8.806 13.895-6.847 14.307-4.873 14.633-3.71 14.779-4.669 14.631-6.499 14.243-6.681 14.144-5.338 14.406-3.538 14.699-1.943 14.888-1.342 14.939-2.356 14.821-4.188 14.928-5.343 15.45-5.439 15.408-4.879 15.543-3.988 15.742-3.043 15.922-2.261 16.045-1.81 16.1-1.761 16.086-2.112 16.001-2.81 15.83-3.777 15.545-4.877 15.132-5.78 14.676-5.977 14.455-5.032 14.783-3.186 15.426-2.401 15.597-3.042 15.228-3.083 15.039-2.175 15.274-.932 15.622.109 15.853.524 15.833.409 15.56.608 15.349 1.615 15.555 3.235 16.048 5.078 16.529 6.634 16.824 7.565 16.909 8.058 16.847 8.492 16.729 9.101 16.616 9.968 16.561 11.158 16.645 12.72 16.949 14.557 17.362 16.349 17.677 17.875 17.849 19.278 17.955 20.754 18.068 22.383 18.225 24.146 18.416 25.945 18.593 27.676 18.726L698.384 860"/><path d="M706.815-312h-1.957l-3.9 17.372-5.777 16.202-7.448 15.841-8.751 15.516-9.629 15.221-10.146 14.966-10.436 14.753-10.632 14.56-10.831 14.371-11.088 14.162-11.412 13.927-11.756 13.668-12.029 13.418-11.918 13.304-11.189 13.437-9.863 13.768-8.196 14.151-6.391 14.499-4.599 14.775-3.576 14.896-4.479 14.761-6.136 14.424-6.268 14.346-5.009 14.575-3.348 14.828-1.876 14.993-1.298 15.04-2.198 14.938-3.86 15.029-4.913 15.467-4.978 15.438-4.42 15.562-3.542 15.739-2.603 15.901-1.805 16.011-1.3 16.065-1.162 16.068-1.407 16.015-1.988 15.896-2.862 15.689-3.914 15.372-4.858 15.002-5.154 14.799-4.3 15.042-2.539 15.553-1.79 15.691-2.456 15.398-2.59 15.227-1.784 15.399-.651 15.665.28 15.838.604 15.812.415 15.579.521 15.399 1.442 15.564 2.984 15.966 4.727 16.357 6.17 16.595 6.999 16.658 7.393 16.6 7.729 16.496 8.221 16.394 8.948 16.335 9.994 16.389 11.433 16.63 13.165 16.977 14.87 17.253 16.322 17.41 17.632 17.507 18.991 17.603 20.481 17.732 22.088 17.878 23.71 18.011 25.248 18.11L706.815 860"/><path d="M717.655-312h-1.749l-3.497 17.384-5.215 16.234-6.783 15.905-8.048 15.616-8.938 15.349-9.498 15.113-9.84 14.911-10.069 14.731-10.271 14.557-10.499 14.376-10.761 14.18-11.033 13.971-11.237 13.774-11.085 13.694-10.362 13.814-9.107 14.089-7.56 14.406-5.905 14.694-4.287 14.923-3.39 15.02-4.24 14.899-5.734 14.614-5.822 14.553-4.647 14.749-3.122 14.963-1.766 15.104-1.217 15.146-2.009 15.063-3.513 15.128-4.473 15.481-4.513 15.461-3.966 15.57-3.114 15.724-2.198 15.862-1.401 15.96-.861 16.009-.661 16.019-.809 15.988-1.285 15.911-2.053 15.762-3.039 15.528-3.981 15.234-4.35 15.058-3.598 15.233-1.949 15.628-1.24 15.739-1.904 15.51-2.11 15.363-1.41 15.484-.396 15.682.417 15.808.664 15.777.424 15.585.456 15.436 1.289 15.563 2.734 15.885 4.356 16.198 5.679 16.386 6.406 16.431 6.719 16.381 6.968 16.287 7.357 16.201 7.96 16.142 8.866 16.174 10.169 16.358 11.782 16.643 13.386 16.881 14.758 17.022 15.982 17.108 17.227 17.191 18.581 17.292 20.024 17.405 21.468 17.501 22.817 17.57L717.655 860"/></g></g></svg>