<?xml version="1.0" encoding="UTF-8"?>
<svg width="76px" height="38px" viewBox="0 0 76 38" version="1.1" xmlns="http://www.w3.org/2000/svg" xmlns:xlink="http://www.w3.org/1999/xlink">
    <title>Group 24</title>
    <defs>
        <polygon id="path-1" points="0 0 12.9036689 0 12.9036689 17.2362683 0 17.2362683"></polygon>
        <polygon id="path-3" points="0 0 17.5465605 0 17.5465605 7.38668763 0 7.38668763"></polygon>
        <polygon id="path-5" points="0 0 17.5607186 0 17.5607186 7.38656184 0 7.38656184"></polygon>
    </defs>
    <g stroke="none" stroke-width="1" fill="none" fill-rule="evenodd">
        <g transform="translate(-250.000000, -26.000000)">
            <g transform="translate(250.000000, 26.000000)">
                <polygon fill="#F550EA" points="0 1.02702703 0 18.4864865 3.44571129 18.4864865 3.44571129 11.0814315 9.76694914 11.0814315 9.76694914 7.93835505 3.44571129 7.93835505 3.44571129 4.17010348 11.2972973 4.17010348 11.2972973 1.02702703"></polygon>
                <g transform="translate(13.351351, 0.000000)">
                    <path d="M8.49630936,5.13316562 C8.49630936,6.36838574 7.8670126,6.96880503 6.57249547,6.96880503 L3.56759284,6.96880503 L3.56759284,3.29752621 L6.57249547,3.29752621 C7.8670126,3.29752621 8.49630936,3.89794549 8.49630936,5.13316562 L8.49630936,5.13316562 Z M3.56759284,10.07174 L5.09793776,10.07174 L9.71559827,17.4308595 L13.489477,17.4308595 L8.70001725,9.76545073 C10.7165985,9.12247379 11.8701684,7.44071279 11.8701684,5.13316562 C11.8701684,2.08683438 9.83076507,0.194591195 6.5479829,0.194591195 L0.194579068,0.194591195 L0.194579068,17.4308595 L3.56759284,17.4308595 L3.56759284,10.07174 Z" fill="#F550EA"></path>
                    <polygon fill="#F550EA" points="37.9929154 6.42823899 44.1622637 17.4309644 47.6703079 17.4309644 47.6703079 0.194486373 44.2964488 0.194486373 44.2964488 11.1972117 38.1273119 0.194486373 34.6190564 0.194486373 34.6190564 17.4309644 37.9929154 17.4309644"></polygon>
                    <g transform="translate(49.744980, 0.194507)">
                        <mask id="mask-2" fill="white">
                            <use xlink:href="#path-1"></use>
                        </mask>
                        <polygon fill="#F550EA" mask="url(#mask-2)" points="0 0 0 3.10293501 4.76494722 3.10293501 4.76494722 17.2362683 8.1381723 17.2362683 8.1381723 3.10293501 12.9037535 3.10293501 12.9037535 0"></polygon>
                    </g>
                    <path d="M8.30236424,25.5078616 C8.30236424,26.7430818 7.67285616,27.343501 6.37812772,27.343501 L3.37364772,27.343501 L3.37364772,23.6722222 L6.37812772,23.6722222 C7.67285616,23.6722222 8.30236424,24.2726415 8.30236424,25.5078616 M11.6755893,25.5078616 C11.6755893,22.4615304 9.63639732,20.5692872 6.35361515,20.5692872 L0,20.5692872 L0,37.8053459 L3.37364772,37.8053459 L3.37364772,30.4464361 L4.90357001,30.4464361 L9.52165314,37.8053459 L13.294898,37.8053459 L8.5056495,30.1401468 C10.5222308,29.4969602 11.6755893,27.8154088 11.6755893,25.5078616" fill="#F550EA"></path>
                    <polygon fill="#F550EA" points="50.9647335 32.5689727 47.6830079 22.372327 44.8192639 22.372327 41.5375383 32.5689727 38.170864 20.5691824 34.6190775 20.5691824 39.5503298 37.8054507 42.8986197 37.8054507 46.2513472 27.6939203 49.6036521 37.8054507 52.951942 37.8054507 57.8831943 20.5691824 54.3318304 20.5691824"></polygon>
                    <path d="M18.0471663,17.4308386 C18.2525647,16.3966667 18.6927343,15.5021174 19.3784522,14.7538994 C20.381777,13.6857652 21.6788299,13.1518029 23.2939122,13.1518029 C24.884482,13.1518029 26.1815349,13.6857652 27.1603471,14.7538994 C27.8631815,15.5021174 28.3082114,16.3966667 28.5148777,17.4308386 L32.0620152,17.4308386 C31.8061125,15.5067296 31.0045938,13.8822013 29.65598,12.5446751 C27.9922951,10.8696226 25.8632942,10.0442558 23.2939122,10.0442558 C20.7000177,10.0442558 18.5710167,10.8696226 16.906698,12.5446751 C15.5587181,13.8822013 14.7571994,15.5067296 14.5012966,17.4308386 L18.0471663,17.4308386 Z" fill="#F550EA"></path>
                    <path d="M28.5082213,20.5691614 C28.2985966,21.5993501 27.8558912,22.4886583 27.1604527,23.2461006 C26.1816406,24.3144444 24.8843763,24.8481971 23.2938066,24.8481971 C21.6789355,24.8481971 20.3816713,24.3144444 19.3785579,23.2461006 C18.6998134,22.4886583 18.2621795,21.5993501 18.0538227,20.5691614 L14.5083757,20.5691614 C14.7710405,22.4798532 15.5696008,24.1089937 16.9068036,25.4553249 C18.5709111,27.1303774 20.7001234,27.9559539 23.2938066,27.9559539 C25.8631885,27.9559539 27.9921895,27.1303774 29.6560856,25.4553249 C30.9937111,24.1089937 31.7922713,22.4798532 32.0549362,20.5691614 L28.5082213,20.5691614 Z" fill="#F550EA"></path>
                    <g transform="translate(14.508376, 30.613312)">
                        <mask id="mask-4" fill="white">
                            <use xlink:href="#path-3"></use>
                        </mask>
                        <path d="M13.9998456,0 C13.7902209,1.03018868 13.3475155,1.91949686 12.652077,2.6769392 C11.6732649,3.74528302 10.3760006,4.27903564 8.78543087,4.27903564 C7.17055985,4.27903564 5.87329562,3.74528302 4.87018221,2.6769392 C4.19143767,1.91949686 3.75380382,1.03018868 3.545447,0 L0,0 C0.262664836,1.91069182 1.06122511,3.53983229 2.39842791,4.88616352 C4.06253538,6.56121593 6.19174768,7.38679245 8.78543087,7.38679245 C11.3548128,7.38679245 13.4838138,6.56121593 15.1477099,4.88616352 C16.4853354,3.53983229 17.2838956,1.91069182 17.5465605,0 L13.9998456,0 Z" fill="#F550EA" mask="url(#mask-4)"></path>
                    </g>
                    <g transform="translate(14.501297, 0.000000)">
                        <mask id="mask-6" fill="white">
                            <use xlink:href="#path-5"></use>
                        </mask>
                        <path d="M3.54586963,7.38656184 C3.75126804,6.35238994 4.19143767,5.45784067 4.87715561,4.70962264 C5.88048034,3.64148847 7.17753325,3.10752621 8.79261558,3.10752621 C10.3831854,3.10752621 11.6802383,3.64148847 12.6590504,4.70962264 C13.3618849,5.45784067 13.8069148,6.35238994 14.0135811,7.38656184 L17.5607186,7.38656184 C17.3048159,5.46245283 16.5032972,3.83792453 15.1546833,2.50039832 C13.4909985,0.825345912 11.3619975,-2.09643606e-05 8.79261558,-2.09643606e-05 C6.19872108,-2.09643606e-05 4.0697201,0.825345912 2.40540131,2.50039832 C1.05742143,3.83792453 0.255902749,5.46245283 0,7.38656184 L3.54586963,7.38656184 Z" fill="#F550EA" mask="url(#mask-6)"></path>
                    </g>
                </g>
            </g>
        </g>
    </g>
</svg>