<svg width="579" height="549" fill="none" xmlns="http://www.w3.org/2000/svg"><path d="M313.607 268.329c1.251-8.895 5.171-16.405 11.762-22.59 8.14-7.744 18.549-11.559 31.236-11.559 12.563 0 22.976 3.815 31.112 11.559 6.596 6.185 10.515 13.695 11.766 22.59h-17.346c-.912-4.632-3.209-8.924-6.624-12.378-4.788-4.936-11.13-7.404-18.912-7.404-7.898 0-14.24 2.468-19.149 7.404-3.351 3.481-5.605 7.766-6.51 12.378h-17.335Zm68.497 13.186c-.936 4.616-3.217 8.899-6.591 12.374-4.788 4.936-11.13 7.404-18.912 7.404-7.898 0-14.24-2.468-19.149-7.404-3.31-3.501-5.548-7.777-6.478-12.374h-17.335c1.285 8.83 5.194 16.359 11.726 22.586 8.14 7.744 18.549 11.559 31.236 11.559 12.563 0 22.976-3.815 31.113-11.559 6.54-6.222 10.449-13.751 11.729-22.586h-17.339Zm0 46.417c-.936 4.617-3.217 8.9-6.591 12.375-4.788 4.94-11.13 7.408-18.912 7.408-7.898 0-14.24-2.468-19.149-7.408-3.31-3.502-5.548-7.777-6.478-12.375h-17.335c1.285 8.831 5.194 16.36 11.726 22.587 8.14 7.744 18.549 11.563 31.236 11.563 12.563 0 22.976-3.819 31.113-11.563 6.54-6.225 10.449-13.753 11.729-22.587h-17.339Zm-51.158-106.044c.905-4.611 3.159-8.895 6.51-12.374 4.909-4.94 11.267-7.408 19.149-7.408 7.778 0 14.12 2.468 18.912 7.408 3.415 3.452 5.712 7.744 6.624 12.374h17.346c-1.251-8.894-5.17-16.404-11.765-22.586-8.137-7.744-18.55-11.559-31.113-11.559-12.687 0-23.096 3.815-31.236 11.559-6.591 6.182-10.511 13.692-11.762 22.586h17.335Zm104.418-47.478c.901-4.612 3.155-8.897 6.51-12.374 4.905-4.94 11.247-7.408 19.145-7.408 7.778 0 14.124 2.468 18.912 7.408 3.416 3.451 5.713 7.743 6.623 12.374h17.347c-1.251-8.895-5.171-16.405-11.766-22.59-8.136-7.744-18.545-11.559-31.112-11.559-12.683 0-23.096 3.815-31.232 11.559-6.596 6.185-10.515 13.695-11.766 22.59h17.339Zm51.158 13.19c-.934 4.617-3.216 8.9-6.591 12.374-4.784 4.94-11.13 7.408-18.912 7.408-7.898 0-14.24-2.468-19.145-7.408-3.313-3.499-5.552-7.776-6.478-12.374h-17.339c1.285 8.833 5.195 16.363 11.729 22.59 8.137 7.744 18.55 11.559 31.233 11.559 12.567 0 22.976-3.815 31.112-11.559 6.543-6.227 10.454-13.757 11.734-22.59h-17.343Zm0 46.418c-.933 4.617-3.215 8.901-6.591 12.374-4.784 4.94-11.13 7.408-18.912 7.408-7.898 0-14.24-2.468-19.145-7.408-3.314-3.499-5.553-7.776-6.478-12.374h-17.339c1.285 8.833 5.195 16.363 11.729 22.589 8.137 7.744 18.55 11.56 31.233 11.56 12.567 0 22.976-3.816 31.112-11.56 6.543-6.226 10.454-13.756 11.734-22.589h-17.343Zm-51.154-106.044c.902-4.614 3.156-8.9 6.51-12.378 4.905-4.937 11.247-7.405 19.145-7.405 7.778 0 14.124 2.468 18.912 7.405 3.415 3.453 5.712 7.746 6.624 12.378h17.346c-1.251-8.895-5.171-16.405-11.766-22.59-8.136-7.744-18.545-11.56-31.112-11.56-12.683 0-23.096 3.816-31.232 11.56-6.595 6.185-10.515 13.695-11.766 22.59h17.339Zm104.413 140.347c.906-4.612 3.16-8.897 6.511-12.378 4.905-4.936 11.267-7.404 19.145-7.404 7.782 0 14.124 2.468 18.912 7.404 3.413 3.455 5.71 7.747 6.623 12.378h17.347c-1.251-8.894-5.175-16.404-11.766-22.59-8.136-7.743-18.549-11.559-31.116-11.559-12.683 0-23.092 3.816-31.233 11.559-6.591 6.186-10.51 13.696-11.761 22.59h17.338Zm51.159 13.186c-.936 4.617-3.217 8.9-6.591 12.374-4.788 4.937-11.13 7.405-18.912 7.405-7.894 0-14.24-2.468-19.145-7.405-3.313-3.499-5.552-7.776-6.478-12.374h-17.339c1.282 8.831 5.192 16.36 11.729 22.586 8.141 7.744 18.55 11.559 31.233 11.559 12.567 0 22.98-3.815 31.116-11.559 6.54-6.221 10.45-13.75 11.73-22.586H590.94Zm0 46.418c-.936 4.616-3.217 8.9-6.591 12.374-4.788 4.94-11.13 7.408-18.912 7.408-7.894 0-14.24-2.468-19.145-7.408-3.313-3.499-5.552-7.776-6.478-12.374h-17.339c1.282 8.831 5.192 16.359 11.729 22.586 8.141 7.744 18.55 11.563 31.233 11.563 12.567 0 22.98-3.819 31.116-11.563 6.54-6.224 10.45-13.753 11.73-22.586H590.94Zm-51.159-106.044c.905-4.611 3.159-8.896 6.511-12.374 4.905-4.94 11.267-7.408 19.145-7.408 7.782 0 14.124 2.468 18.912 7.408 3.413 3.453 5.71 7.744 6.623 12.374h17.347c-1.251-8.895-5.175-16.405-11.766-22.586-8.136-7.744-18.549-11.56-31.116-11.56-12.683 0-23.092 3.816-31.233 11.56-6.591 6.181-10.51 13.691-11.761 22.586h17.338Zm104.414-47.478c.905-4.612 3.159-8.896 6.511-12.375 4.909-4.94 11.267-7.408 19.149-7.408 7.778 0 14.12 2.468 18.912 7.408 3.415 3.452 5.713 7.744 6.623 12.375h17.347c-1.251-8.895-5.171-16.405-11.766-22.59-8.136-7.744-18.549-11.559-31.112-11.559-12.683 0-23.096 3.815-31.237 11.559-6.591 6.185-10.51 13.695-11.761 22.59h17.334Zm51.163 13.197c-.936 4.616-3.217 8.899-6.591 12.374-4.788 4.94-11.13 7.408-18.912 7.408-7.899 0-14.24-2.468-19.149-7.408-3.31-3.501-5.548-7.777-6.474-12.374h-17.339c1.282 8.833 5.191 16.363 11.725 22.59 8.141 7.744 18.554 11.559 31.237 11.559 12.563 0 22.976-3.815 31.112-11.559 6.543-6.227 10.453-13.757 11.73-22.59h-17.339Zm0 46.418c-.935 4.616-3.217 8.9-6.591 12.374-4.788 4.94-11.13 7.408-18.912 7.408-7.899 0-14.24-2.468-19.149-7.408-3.311-3.5-5.549-7.777-6.474-12.374h-17.339c1.282 8.833 5.191 16.363 11.725 22.589 8.141 7.744 18.554 11.56 31.237 11.56 12.563 0 22.976-3.816 31.112-11.56 6.543-6.226 10.453-13.756 11.73-22.589h-17.339Zm-51.159-106.044c.906-4.613 3.16-8.898 6.511-12.378 4.909-4.937 11.267-7.405 19.149-7.405 7.778 0 14.12 2.468 18.912 7.405 3.415 3.453 5.712 7.746 6.623 12.378h17.347c-1.251-8.895-5.171-16.405-11.766-22.59-8.136-7.744-18.549-11.56-31.112-11.56-12.683 0-23.096 3.816-31.237 11.56-6.591 6.185-10.51 13.695-11.761 22.59h17.334ZM17.692 174.391c.905-4.611 3.159-8.895 6.51-12.374 4.91-4.94 11.267-7.408 19.15-7.408 7.778 0 14.12 2.468 18.912 7.408 3.415 3.452 5.712 7.744 6.623 12.374h17.346c-1.251-8.894-5.17-16.404-11.765-22.59-8.136-7.743-18.55-11.559-31.112-11.559-12.688 0-23.097 3.816-31.237 11.559-6.591 6.186-10.51 13.696-11.762 22.59h17.335ZM68.85 187.6c-.936 4.616-3.217 8.899-6.59 12.374-4.789 4.94-11.13 7.408-18.912 7.408-7.9 0-14.24-2.468-19.15-7.408-3.313-3.499-5.552-7.776-6.478-12.374H.38c1.288 8.833 5.198 16.363 11.73 22.59 8.14 7.744 18.55 11.559 31.237 11.559 12.562 0 22.975-3.815 31.112-11.559 6.54-6.227 10.45-13.757 11.73-22.59H68.85Zm0 46.418c-.935 4.616-3.216 8.9-6.59 12.374-4.789 4.94-11.13 7.408-18.912 7.408-7.9 0-14.24-2.468-19.15-7.408-3.313-3.499-5.552-7.776-6.478-12.374H.38c1.288 8.833 5.198 16.363 11.73 22.589 8.14 7.744 18.55 11.56 31.237 11.56 12.562 0 22.975-3.816 31.112-11.56 6.54-6.226 10.45-13.756 11.73-22.589H68.85ZM17.692 127.974c.905-4.613 3.16-8.898 6.51-12.378 4.91-4.937 11.267-7.405 19.15-7.405 7.778 0 14.12 2.468 18.912 7.405 3.414 3.453 5.711 7.746 6.623 12.378h17.346c-1.251-8.895-5.17-16.405-11.765-22.59-8.136-7.744-18.55-11.56-31.112-11.56-12.688 0-23.097 3.816-31.237 11.56-6.591 6.185-10.51 13.695-11.762 22.59h17.335ZM122.11 268.321c.902-4.613 3.156-8.899 6.51-12.378 4.905-4.936 11.267-7.404 19.146-7.404 7.778 0 14.123 2.468 18.911 7.404 3.415 3.454 5.712 7.747 6.624 12.378h17.346c-1.251-8.894-5.17-16.404-11.765-22.59-8.137-7.743-18.546-11.559-31.112-11.559-12.684 0-23.097 3.816-31.233 11.559-6.595 6.186-10.515 13.696-11.766 22.59h17.339Zm51.154 13.186c-.936 4.617-3.217 8.9-6.591 12.374-4.784 4.937-11.129 7.405-18.911 7.405-7.899 0-14.241-2.468-19.146-7.405-3.313-3.499-5.552-7.776-6.478-12.374h-17.339c1.283 8.831 5.192 16.36 11.73 22.586 8.136 7.744 18.549 11.559 31.233 11.559 12.566 0 22.975-3.815 31.112-11.559 6.542-6.221 10.452-13.75 11.729-22.586h-17.339Zm0 46.418c-.936 4.616-3.217 8.9-6.591 12.374-4.784 4.94-11.129 7.408-18.911 7.408-7.899 0-14.241-2.468-19.146-7.408-3.313-3.499-5.552-7.776-6.478-12.374h-17.339c1.283 8.831 5.192 16.359 11.73 22.586 8.136 7.744 18.549 11.563 31.233 11.563 12.566 0 22.975-3.819 31.112-11.563 6.542-6.224 10.452-13.753 11.729-22.586h-17.339ZM122.11 221.881c.902-4.612 3.156-8.897 6.51-12.374 4.905-4.94 11.267-7.408 19.146-7.408 7.778 0 14.123 2.468 18.911 7.408 3.415 3.452 5.712 7.743 6.624 12.374h17.346c-1.251-8.895-5.17-16.405-11.765-22.586-8.137-7.744-18.546-11.56-31.112-11.56-12.684 0-23.097 3.816-31.233 11.56-6.595 6.181-10.515 13.691-11.766 22.586h17.339ZM330.946 80.635c.905-4.611 3.159-8.896 6.51-12.374 4.909-4.94 11.267-7.408 19.149-7.408 7.778 0 14.12 2.468 18.912 7.408 3.415 3.452 5.712 7.743 6.624 12.374h17.346c-1.251-8.895-5.17-16.405-11.765-22.586-8.137-7.748-18.55-11.56-31.113-11.56-12.687 0-23.096 3.812-31.236 11.56-6.591 6.181-10.511 13.691-11.762 22.586h17.335Zm51.158 13.186c-.935 4.616-3.216 8.9-6.591 12.374-4.788 4.94-11.13 7.408-18.912 7.408-7.898 0-14.24-2.468-19.149-7.408-3.311-3.501-5.549-7.777-6.478-12.374h-17.335c1.285 8.833 5.194 16.363 11.726 22.59 8.14 7.743 18.549 11.559 31.236 11.559 12.563 0 22.976-3.816 31.113-11.559 6.54-6.227 10.449-13.757 11.729-22.59h-17.339Zm0 46.417c-.935 4.617-3.216 8.901-6.591 12.375-4.788 4.94-11.13 7.408-18.912 7.408-7.898 0-14.24-2.468-19.149-7.408-3.311-3.501-5.549-7.777-6.478-12.375h-17.335c1.285 8.834 5.194 16.364 11.726 22.59 8.14 7.744 18.549 11.559 31.236 11.559 12.563 0 22.976-3.815 31.113-11.559 6.54-6.221 10.449-13.751 11.729-22.59h-17.339ZM330.946 34.194c.905-4.61 3.159-8.895 6.51-12.374 4.909-4.94 11.267-7.408 19.149-7.408 7.778 0 14.12 2.468 18.912 7.408 3.416 3.452 5.713 7.744 6.624 12.374h17.346c-1.251-8.894-5.17-16.404-11.765-22.59C379.585 3.862 369.172.046 356.609.046c-12.687 0-23.096 3.816-31.236 11.56-6.591 6.185-10.511 13.695-11.762 22.59h17.335Zm208.835 46.418c.905-4.61 3.159-8.895 6.511-12.374 4.905-4.94 11.267-7.408 19.145-7.408 7.782 0 14.124 2.468 18.912 7.408 3.413 3.453 5.71 7.744 6.623 12.374h17.347c-1.251-8.895-5.175-16.404-11.766-22.586-8.136-7.748-18.549-11.56-31.116-11.56-12.683 0-23.092 3.812-31.233 11.56-6.591 6.181-10.51 13.691-11.761 22.586h17.338Zm51.159 13.186c-.935 4.617-3.217 8.9-6.591 12.374-4.788 4.94-11.13 7.408-18.912 7.408-7.894 0-14.24-2.468-19.145-7.408-3.314-3.499-5.553-7.775-6.478-12.374h-17.339c1.282 8.833 5.192 16.363 11.729 22.59 8.141 7.744 18.55 11.559 31.233 11.559 12.567 0 22.98-3.815 31.116-11.559 6.54-6.227 10.45-13.757 11.73-22.59H590.94Zm0 46.418c-.935 4.617-3.217 8.9-6.591 12.374-4.788 4.94-11.13 7.408-18.912 7.408-7.894 0-14.24-2.468-19.145-7.408-3.314-3.499-5.553-7.776-6.478-12.374h-17.339c1.282 8.833 5.192 16.363 11.729 22.59 8.141 7.744 18.55 11.559 31.233 11.559 12.567 0 22.98-3.815 31.116-11.559 6.54-6.222 10.45-13.752 11.73-22.59H590.94ZM539.781 34.172c.905-4.611 3.159-8.896 6.511-12.375 4.905-4.94 11.267-7.408 19.145-7.408 7.782 0 14.124 2.469 18.912 7.408 3.414 3.453 5.711 7.745 6.623 12.375h17.347c-1.251-8.895-5.175-16.405-11.766-22.59-8.136-7.744-18.549-11.56-31.116-11.56-12.683 0-23.092 3.816-31.233 11.56-6.591 6.185-10.51 13.695-11.761 22.59h17.338ZM122.11 80.59c.902-4.612 3.156-8.898 6.51-12.375 4.905-4.94 11.267-7.408 19.146-7.408 7.778 0 14.123 2.468 18.911 7.408 3.415 3.452 5.712 7.744 6.624 12.375h17.346c-1.251-8.895-5.17-16.405-11.765-22.587-8.137-7.747-18.546-11.559-31.112-11.559-12.684 0-23.097 3.812-31.233 11.56-6.595 6.18-10.515 13.69-11.766 22.586h17.339Zm51.154 13.185c-.935 4.617-3.216 8.9-6.591 12.375-4.784 4.939-11.129 7.408-18.911 7.408-7.899 0-14.241-2.469-19.146-7.408-3.313-3.499-5.552-7.776-6.478-12.375h-17.339c1.283 8.833 5.192 16.363 11.73 22.59 8.136 7.744 18.549 11.56 31.233 11.56 12.566 0 22.975-3.816 31.112-11.56 6.542-6.227 10.452-13.757 11.729-22.59h-17.339Zm0 46.418c-.935 4.617-3.216 8.9-6.591 12.374-4.784 4.94-11.129 7.408-18.911 7.408-7.899 0-14.241-2.468-19.146-7.408-3.313-3.499-5.552-7.775-6.478-12.374h-17.339c1.283 8.833 5.192 16.363 11.73 22.59 8.136 7.744 18.549 11.559 31.233 11.559 12.566 0 22.975-3.815 31.112-11.559 6.542-6.222 10.452-13.752 11.729-22.59h-17.339ZM122.11 34.149c.901-4.612 3.155-8.898 6.51-12.374 4.905-4.94 11.267-7.408 19.146-7.408 7.778 0 14.123 2.468 18.911 7.408 3.416 3.451 5.713 7.743 6.624 12.374h17.346c-1.251-8.895-5.17-16.405-11.765-22.59C170.745 3.815 160.336 0 147.77 0c-12.684 0-23.097 3.815-31.233 11.56-6.595 6.184-10.515 13.694-11.766 22.59h17.339Zm208.836 421.002c.905-4.611 3.159-8.895 6.51-12.374 4.909-4.94 11.267-7.408 19.149-7.408 7.778 0 14.12 2.468 18.912 7.408 3.416 3.452 5.713 7.744 6.624 12.374h17.346c-1.251-8.894-5.17-16.404-11.765-22.59-8.137-7.744-18.55-11.559-31.113-11.559-12.687 0-23.096 3.815-31.236 11.559-6.591 6.186-10.511 13.696-11.762 22.59h17.335Zm51.158 13.186c-.936 4.617-3.217 8.9-6.591 12.374-4.788 4.94-11.13 7.408-18.912 7.408-7.898 0-14.24-2.468-19.149-7.408-3.31-3.501-5.548-7.777-6.478-12.374h-17.335c1.285 8.831 5.194 16.359 11.726 22.586 8.14 7.744 18.549 11.563 31.236 11.563 12.563 0 22.976-3.819 31.113-11.563 6.54-6.222 10.449-13.75 11.729-22.586h-17.339Zm0 46.418c-.936 4.616-3.217 8.9-6.591 12.374-4.788 4.94-11.13 7.408-18.912 7.408-7.898 0-14.24-2.468-19.149-7.408-3.31-3.501-5.548-7.777-6.478-12.374h-17.335c1.285 8.833 5.194 16.363 11.726 22.59 8.14 7.744 18.549 11.559 31.236 11.559 12.563 0 22.976-3.815 31.113-11.559 6.54-6.227 10.449-13.757 11.729-22.59h-17.339Zm-51.158-106.044c.905-4.612 3.159-8.898 6.51-12.378 4.909-4.936 11.267-7.405 19.149-7.405 7.778 0 14.12 2.469 18.912 7.405 3.415 3.453 5.712 7.746 6.624 12.378h17.346c-1.253-8.894-5.174-16.424-11.765-22.59-8.137-7.744-18.55-11.559-31.113-11.559-12.687 0-23.096 3.815-31.236 11.559-6.591 6.181-10.512 13.711-11.762 22.59h17.335Zm208.835 46.418c.905-4.611 3.159-8.896 6.511-12.375 4.905-4.94 11.267-7.408 19.145-7.408 7.782 0 14.124 2.468 18.912 7.408 3.414 3.453 5.711 7.745 6.623 12.375h17.347c-1.251-8.895-5.175-16.405-11.766-22.59-8.136-7.744-18.549-11.56-31.116-11.56-12.683 0-23.092 3.816-31.233 11.56-6.591 6.185-10.51 13.695-11.761 22.59h17.338Zm51.159 13.185c-.936 4.617-3.217 8.9-6.591 12.375-4.788 4.94-11.13 7.408-18.912 7.408-7.894 0-14.24-2.468-19.145-7.408-3.313-3.5-5.552-7.776-6.478-12.375h-17.339c1.282 8.831 5.192 16.36 11.729 22.587 8.141 7.744 18.55 11.562 31.233 11.562 12.567 0 22.98-3.818 31.116-11.562 6.54-6.222 10.45-13.751 11.73-22.587H590.94Zm0 46.418c-.936 4.617-3.217 8.9-6.591 12.375-4.788 4.939-11.13 7.408-18.912 7.408-7.894 0-14.24-2.469-19.145-7.408-3.313-3.5-5.552-7.776-6.478-12.375h-17.339c1.282 8.833 5.192 16.363 11.729 22.59 8.141 7.744 18.55 11.559 31.233 11.559 12.567 0 22.98-3.815 31.116-11.559 6.54-6.227 10.45-13.757 11.73-22.59H590.94Zm-51.159-106.044c.906-4.612 3.16-8.897 6.511-12.378 4.905-4.936 11.267-7.404 19.145-7.404 7.782 0 14.124 2.468 18.912 7.404 3.413 3.455 5.71 7.747 6.623 12.378h17.347c-1.25-8.893-5.172-16.424-11.766-22.59-8.136-7.744-18.549-11.559-31.116-11.559-12.683 0-23.092 3.815-31.233 11.559-6.591 6.182-10.511 13.712-11.761 22.59h17.338ZM122.11 455.106c.901-4.612 3.155-8.898 6.51-12.374 4.905-4.94 11.267-7.408 19.146-7.408 7.778 0 14.123 2.468 18.911 7.408 3.416 3.451 5.713 7.743 6.624 12.374h17.346c-1.251-8.895-5.17-16.405-11.765-22.59-8.137-7.744-18.546-11.559-31.112-11.559-12.684 0-23.097 3.815-31.233 11.559-6.595 6.185-10.515 13.695-11.766 22.59h17.339Zm51.154 13.186c-.936 4.616-3.217 8.899-6.591 12.374-4.784 4.94-11.129 7.408-18.911 7.408-7.899 0-14.241-2.468-19.146-7.408-3.313-3.499-5.552-7.776-6.478-12.374h-17.339c1.283 8.83 5.192 16.359 11.73 22.586 8.136 7.744 18.549 11.563 31.233 11.563 12.566 0 22.975-3.819 31.112-11.563 6.542-6.222 10.452-13.751 11.729-22.586h-17.339Zm0 46.418c-.936 4.616-3.217 8.899-6.591 12.374-4.784 4.94-11.129 7.408-18.911 7.408-7.899 0-14.241-2.468-19.146-7.408-3.313-3.5-5.552-7.776-6.478-12.374h-17.339c1.283 8.833 5.192 16.363 11.73 22.589 8.136 7.744 18.549 11.56 31.233 11.56 12.566 0 22.975-3.816 31.112-11.56 6.542-6.226 10.452-13.756 11.729-22.589h-17.339ZM122.11 408.666c.902-4.614 3.156-8.9 6.51-12.379 4.905-4.936 11.267-7.404 19.146-7.404 7.778 0 14.123 2.468 18.911 7.404 3.415 3.454 5.712 7.747 6.624 12.379h17.346c-1.25-8.894-5.172-16.424-11.765-22.59-8.137-7.744-18.546-11.56-31.112-11.56-12.684 0-23.097 3.816-31.233 11.56-6.594 6.181-10.516 13.711-11.766 22.59h17.339Zm104.414-234.354c.905-4.611 3.159-8.895 6.51-12.374 4.905-4.94 11.267-7.408 19.145-7.408 7.779 0 14.124 2.468 18.912 7.408 3.414 3.452 5.711 7.744 6.624 12.374h17.342c-1.251-8.895-5.17-16.405-11.761-22.59-8.141-7.744-18.55-11.559-31.117-11.559-12.683 0-23.092 3.815-31.232 11.559-6.591 6.185-10.511 13.695-11.762 22.59h17.339Zm51.162 13.288c-.936 4.616-3.217 8.899-6.591 12.374-4.788 4.94-11.133 7.408-18.911 7.408-7.895 0-14.241-2.468-19.146-7.408-3.313-3.499-5.552-7.776-6.478-12.374h-17.339c1.285 8.833 5.195 16.363 11.73 22.59 8.14 7.744 18.549 11.559 31.233 11.559 12.566 0 22.975-3.815 31.116-11.559 6.54-6.227 10.449-13.757 11.729-22.59h-17.343Zm0 46.418c-.935 4.616-3.216 8.9-6.591 12.374-4.788 4.94-11.133 7.408-18.911 7.408-7.895 0-14.241-2.468-19.146-7.408-3.313-3.499-5.552-7.776-6.478-12.374h-17.339c1.285 8.833 5.195 16.363 11.73 22.589 8.14 7.744 18.549 11.56 31.233 11.56 12.566 0 22.975-3.816 31.116-11.56 6.54-6.226 10.449-13.756 11.729-22.589h-17.343Zm-51.158-106.044c.905-4.613 3.159-8.898 6.51-12.378 4.905-4.937 11.267-7.405 19.146-7.405 7.778 0 14.123 2.468 18.911 7.405 3.413 3.454 5.71 7.747 6.624 12.378h17.342c-1.251-8.895-5.17-16.405-11.761-22.59-8.141-7.744-18.55-11.56-31.116-11.56-12.684 0-23.093 3.816-31.233 11.56-6.591 6.185-10.511 13.695-11.762 22.59h17.339ZM435.364 361.44c.901-4.612 3.155-8.898 6.51-12.374 4.905-4.94 11.247-7.408 19.145-7.408 7.778 0 14.124 2.468 18.912 7.408 3.416 3.451 5.713 7.743 6.623 12.374h17.347c-1.251-8.895-5.171-16.405-11.766-22.59-8.136-7.744-18.545-11.559-31.112-11.559-12.683 0-23.096 3.815-31.232 11.559-6.596 6.185-10.515 13.695-11.766 22.59h17.339Zm51.158 13.193c-.934 4.617-3.216 8.901-6.591 12.375-4.784 4.94-11.13 7.408-18.912 7.408-7.898 0-14.24-2.468-19.145-7.408-3.313-3.5-5.552-7.776-6.478-12.375h-17.339c1.285 8.834 5.195 16.362 11.729 22.587 8.137 7.747 18.55 11.563 31.233 11.563 12.567 0 22.976-3.816 31.112-11.563 6.543-6.222 10.454-13.751 11.734-22.587h-17.343Zm0 46.418c-.933 4.617-3.215 8.901-6.591 12.374-4.784 4.94-11.13 7.408-18.912 7.408-7.898 0-14.24-2.468-19.145-7.408-3.314-3.499-5.553-7.775-6.478-12.374h-17.339c1.285 8.833 5.195 16.363 11.729 22.59 8.137 7.744 18.55 11.559 31.233 11.559 12.567 0 22.976-3.815 31.112-11.559 6.543-6.227 10.454-13.757 11.734-22.59h-17.343Zm-51.154-106.044c.902-4.613 3.156-8.899 6.51-12.378 4.905-4.936 11.247-7.404 19.145-7.404 7.778 0 14.124 2.468 18.912 7.404 3.415 3.454 5.712 7.747 6.624 12.378h17.346c-1.251-8.895-5.171-16.405-11.766-22.59-8.136-7.744-18.545-11.559-31.112-11.559-12.683 0-23.096 3.815-31.232 11.559-6.595 6.185-10.515 13.695-11.766 22.59h17.339Zm208.835 46.418c.905-4.611 3.159-8.895 6.511-12.374 4.909-4.94 11.267-7.408 19.149-7.408 7.778 0 14.12 2.468 18.912 7.408 3.415 3.451 5.713 7.743 6.623 12.374h17.347c-1.251-8.895-5.17-16.405-11.766-22.59-8.136-7.744-18.549-11.559-31.112-11.559-12.683 0-23.096 3.815-31.237 11.559-6.591 6.185-10.51 13.695-11.761 22.59h17.334Zm51.155 13.208c-.936 4.617-3.217 8.9-6.591 12.375-4.788 4.94-11.13 7.408-18.912 7.408-7.899 0-14.24-2.468-19.149-7.408-3.31-3.501-5.548-7.777-6.474-12.375h-17.339c1.282 8.834 5.191 16.362 11.725 22.587 8.141 7.747 18.554 11.563 31.237 11.563 12.563 0 22.976-3.816 31.112-11.563 6.543-6.222 10.453-13.751 11.73-22.587h-17.339Zm0 46.418c-.935 4.617-3.217 8.9-6.591 12.374-4.788 4.94-11.13 7.408-18.912 7.408-7.899 0-14.24-2.468-19.149-7.408-3.311-3.5-5.549-7.776-6.474-12.374h-17.339c1.282 8.833 5.191 16.363 11.725 22.59 8.141 7.744 18.554 11.559 31.237 11.559 12.563 0 22.976-3.815 31.112-11.559 6.543-6.227 10.453-13.757 11.73-22.59h-17.339Zm-51.159-106.044c.906-4.612 3.16-8.897 6.511-12.378 4.909-4.936 11.267-7.404 19.149-7.404 7.778 0 14.12 2.468 18.912 7.404 3.415 3.454 5.712 7.747 6.623 12.378h17.347c-1.251-8.895-5.171-16.405-11.766-22.59-8.136-7.744-18.549-11.559-31.112-11.559-12.683 0-23.096 3.815-31.237 11.559-6.591 6.185-10.51 13.695-11.761 22.59h17.334ZM17.692 361.425c.905-4.611 3.159-8.895 6.51-12.374 4.91-4.94 11.267-7.408 19.15-7.408 7.778 0 14.12 2.468 18.912 7.408 3.415 3.451 5.712 7.743 6.623 12.374h17.346c-1.251-8.895-5.17-16.405-11.765-22.59-8.136-7.744-18.55-11.559-31.112-11.559-12.688 0-23.097 3.815-31.237 11.559-6.591 6.185-10.51 13.695-11.762 22.59h17.335Zm51.158 13.208c-.936 4.617-3.217 8.9-6.59 12.375-4.789 4.94-11.13 7.408-18.912 7.408-7.9 0-14.24-2.468-19.15-7.408-3.313-3.5-5.552-7.776-6.478-12.375H.38c1.288 8.834 5.198 16.362 11.73 22.587 8.14 7.747 18.55 11.563 31.237 11.563 12.562 0 22.975-3.816 31.112-11.563 6.54-6.222 10.45-13.751 11.73-22.587H68.85Zm0 46.418c-.935 4.617-3.216 8.9-6.59 12.374-4.789 4.94-11.13 7.408-18.912 7.408-7.9 0-14.24-2.468-19.15-7.408-3.313-3.499-5.552-7.775-6.478-12.374H.38c1.288 8.833 5.198 16.363 11.73 22.59 8.14 7.744 18.55 11.559 31.237 11.559 12.562 0 22.975-3.815 31.112-11.559 6.54-6.227 10.45-13.757 11.73-22.59H68.85ZM17.692 315.007c.905-4.612 3.16-8.897 6.51-12.378 4.91-4.936 11.267-7.404 19.15-7.404 7.778 0 14.12 2.468 18.912 7.404 3.414 3.454 5.711 7.747 6.623 12.378h17.346c-1.251-8.895-5.17-16.405-11.765-22.59-8.136-7.744-18.55-11.559-31.112-11.559-12.688 0-23.097 3.815-31.237 11.559-6.591 6.185-10.51 13.695-11.762 22.59h17.335Zm208.836 46.418c.905-4.611 3.159-8.895 6.51-12.374 4.905-4.94 11.267-7.408 19.146-7.408 7.778 0 14.123 2.468 18.911 7.408 3.414 3.452 5.711 7.744 6.624 12.374h17.342c-1.251-8.895-5.17-16.405-11.761-22.59-8.141-7.744-18.55-11.559-31.116-11.559-12.684 0-23.093 3.815-31.233 11.559-6.591 6.185-10.511 13.695-11.762 22.59h17.339Zm51.158 13.208c-.936 4.617-3.217 8.9-6.591 12.375-4.788 4.94-11.133 7.408-18.911 7.408-7.895 0-14.241-2.468-19.146-7.408-3.313-3.5-5.552-7.776-6.478-12.375h-17.339c1.285 8.834 5.195 16.362 11.73 22.587 8.14 7.747 18.549 11.563 31.233 11.563 12.566 0 22.975-3.816 31.116-11.563 6.54-6.222 10.449-13.751 11.729-22.587h-17.343Zm0 46.418c-.935 4.617-3.216 8.9-6.591 12.374-4.788 4.94-11.133 7.408-18.911 7.408-7.895 0-14.241-2.468-19.146-7.408-3.313-3.499-5.552-7.775-6.478-12.374h-17.339c1.285 8.833 5.195 16.363 11.73 22.59 8.14 7.744 18.549 11.559 31.233 11.559 12.566 0 22.975-3.815 31.116-11.559 6.54-6.227 10.449-13.757 11.729-22.59h-17.343Zm-51.158-106.044c.905-4.612 3.159-8.897 6.51-12.378 4.905-4.936 11.267-7.404 19.146-7.404 7.778 0 14.123 2.468 18.911 7.404 3.413 3.455 5.71 7.747 6.624 12.378h17.342c-1.251-8.895-5.17-16.405-11.761-22.59-8.141-7.744-18.55-11.559-31.116-11.559-12.684 0-23.093 3.815-31.233 11.559-6.591 6.185-10.511 13.695-11.762 22.59h17.339Z" fill="#0ceabf"/></svg>