<svg width="930" height="260" xmlns="http://www.w3.org/2000/svg"><g fill="none" fill-rule="evenodd"><text font-family="NeueHaasDisplay-Mediu, Neue Haas Grotesk Display Pro" font-size="18" font-weight="500" letter-spacing="1" fill="#FFF">
                        <tspan x="22" y="15">Q1</tspan>
                    </text><text font-family="NeueHaasDisplay-Mediu, Neue Haas Grotesk Display Pro" font-size="18" font-weight="500" letter-spacing="1" fill="#FFF">
                        <tspan x="22" y="250">2021</tspan>
                    </text><text font-family="NeueHaasDisplay-Mediu, Neue Haas Grotesk Display Pro" font-size="18" font-weight="500" letter-spacing="1" fill="#FFF">
                        <tspan x="202" y="15">Q2</tspan>
                    </text><text font-family="NeueHaasDisplay-Mediu, Neue Haas Grotesk Display Pro" font-size="18" font-weight="500" letter-spacing="1" fill="#FFF">
                        <tspan x="381" y="15">Q3</tspan>
                    </text><text font-family="NeueHaasDisplay-Mediu, Neue Haas Grotesk Display Pro" font-size="18" font-weight="500" letter-spacing="1" fill="#FFF">
                        <tspan x="561" y="15">Q4</tspan>
                    </text><text font-family="NeueHaasDisplay-Mediu, Neue Haas Grotesk Display Pro" font-size="18" font-weight="500" letter-spacing="1" fill="#FFF">
                        <tspan x="740" y="15">Future</tspan>
                    </text><text font-family="NeueHaasDisplay-Mediu, Neue Haas Grotesk Display Pro" font-size="18" font-weight="500" letter-spacing="1" fill="#FFF">
                        <tspan x="740" y="250">2022 - Beyond</tspan>
                    </text><text font-family="IBMPlexSans-Regular, IBM Plex Sans" font-size="15" letter-spacing="-.36" fill="#4A4A4A">
                        <tspan x="28" y="54">Token audited</tspan>
                    </text><text font-family="IBMPlexSans-Regular, IBM Plex Sans" font-size="15" letter-spacing="-.36" fill="#4A4A4A">
                        <tspan x="211" y="54">Token audited</tspan>
                        <tspan x="211" y="77">Launch beta test net</tspan>
                    </text><text font-family="IBMPlexSans-Regular, IBM Plex Sans" font-size="15" letter-spacing="-.36" fill="#4A4A4A">
                        <tspan x="387" y="54">Full operation</tspan>
                    </text><text font-family="IBMPlexSans-Regular, IBM Plex Sans" font-size="15" letter-spacing="-.36" fill="#4A4A4A">
                        <tspan x="567.5" y="54">Initial investment</tspan>
                        <tspan x="567.5" y="77">returns received</tspan>
                        <tspan x="567.5" y="100">by Front Row holders</tspan>
                    </text><text font-family="IBMPlexSans-Regular, IBM Plex Sans" font-size="15" letter-spacing="-.36" fill="#4A4A4A">
                        <tspan x="748.5" y="54">Continued growth</tspan>
                        <tspan x="748.5" y="77">of investments and</tspan>
                        <tspan x="748.5" y="100">dividends to</tspan>
                        <tspan x="748.5" y="123">Front Row holders</tspan>
                    </text><path d="M900.95 205.6 925 217.5l-23.95 12.1-.042-10.002-97 .402-2 .008-.016-4 2-.008 96.999-.402-.04-9.999Z" fill="#451DD6" fill-rule="nonzero"/><path fill="#451DD6" d="M723 213h180v9H723z"/><path fill="#1DC7D6" d="M363 213h180v9H363z"/><path fill="#D61DC7" d="M3 213h180v9H3z"/><path fill="#295EDA" d="M543 213h180v9H543z"/><path fill="#E8E113" d="M183 213h180v9H183z"/><g transform="translate(0 11)"><circle fill="#BABABA" cx="3.5" cy="3.5" r="3.5"/><path stroke="#BABABA" stroke-linecap="square" stroke-dasharray="5" d="M3.5 4.5v195"/></g><g transform="translate(360 11)"><circle fill="#BABABA" cx="3.5" cy="3.5" r="3.5"/><path stroke="#BABABA" stroke-linecap="square" stroke-dasharray="5" d="M3.5 4.5v195"/></g><g transform="translate(180 11)"><circle fill="#BABABA" cx="3.5" cy="3.5" r="3.5"/><path stroke="#BABABA" stroke-linecap="square" stroke-dasharray="5" d="M3.5 4.5v195"/></g><g transform="translate(540 11)"><circle fill="#BABABA" cx="3.5" cy="3.5" r="3.5"/><path stroke="#BABABA" stroke-linecap="square" stroke-dasharray="5" d="M3.5 4.5v195"/></g><g transform="translate(720 11)"><circle fill="#BABABA" cx="3.5" cy="3.5" r="3.5"/><path stroke="#BABABA" stroke-linecap="square" stroke-dasharray="5" d="M3.5 4.5v195"/></g></g></svg>