<svg xmlns="http://www.w3.org/2000/svg" viewBox="0 0 612 211.38"><defs><style>.cls-1{font-size:8.73px;fill:#313131;font-family:Montserrat-Regular, Montserrat;}.cls-2{letter-spacing:-0.06em;}.cls-3{letter-spacing:-0.02em;}.cls-4{letter-spacing:-0.02em;}.cls-5{letter-spacing:0em;}.cls-6{letter-spacing:-0.01em;}.cls-7{letter-spacing:0em;}.cls-8{letter-spacing:-0.02em;}.cls-9{letter-spacing:0em;}.cls-10{letter-spacing:-0.01em;}.cls-11{letter-spacing:-0.01em;}.cls-12{letter-spacing:-0.01em;}.cls-13{letter-spacing:-0.01em;}.cls-14{letter-spacing:-0.01em;}.cls-15{letter-spacing:-0.04em;}.cls-16{letter-spacing:0em;}.cls-17{letter-spacing:0em;}.cls-18,.cls-20,.cls-21,.cls-25,.cls-33{font-size:10px;font-family:Montserrat-Bold, Montserrat;font-weight:700;}.cls-18,.cls-37{fill:#0c86a1;}.cls-19{letter-spacing:-0.01em;}.cls-20{fill:#197495;}.cls-21{fill:#2a6488;}.cls-22{letter-spacing:-0.01em;}.cls-23{letter-spacing:-0.02em;}.cls-24{letter-spacing:0.01em;}.cls-25,.cls-42{fill:#951b4d;}.cls-26{letter-spacing:-0.01em;}.cls-27{letter-spacing:-0.01em;}.cls-28{letter-spacing:0em;}.cls-29{letter-spacing:0em;}.cls-30{letter-spacing:-0.01em;}.cls-31{letter-spacing:-0.01em;}.cls-32{letter-spacing:0.01em;}.cls-33{fill:#3d537c;}.cls-34,.cls-36,.cls-38,.cls-39,.cls-40,.cls-41{fill:none;stroke-miterlimit:10;}.cls-34{stroke:#bababa;stroke-width:0.5px;stroke-dasharray:2 2;}.cls-35{fill:#bababa;}.cls-36{stroke:#0c86a1;}.cls-36,.cls-38,.cls-39,.cls-40,.cls-41{stroke-width:4px;}.cls-38{stroke:#197495;}.cls-39{stroke:#2a6488;}.cls-40{stroke:#3d537c;}.cls-41{stroke:#951b4d;}</style></defs><text class="cls-1" transform="translate(47.99 56.55)"><tspan class="cls-2">T</tspan><tspan x="4.53" y="0">o</tspan><tspan class="cls-3" x="10" y="0">k</tspan><tspan x="15.06" y="0">en audi</tspan><tspan class="cls-4" x="47.82" y="0">t</tspan><tspan x="51.2" y="0">ed</tspan></text><text class="cls-1" transform="translate(148.05 56.54)"><tspan class="cls-5">L</tspan><tspan x="5.16" y="0">au</tspan><tspan class="cls-5" x="16.18" y="0">n</tspan><tspan class="cls-6" x="22.11" y="0">c</tspan><tspan class="cls-7" x="26.95" y="0">h beta</tspan><tspan class="cls-4" x="0" y="10.47">t</tspan><tspan x="3.38" y="10.47">est </tspan><tspan class="cls-5" x="18.75" y="10.47">n</tspan><tspan class="cls-7" x="24.67" y="10.47">et</tspan></text><text class="cls-1" transform="translate(239.02 56.54)"><tspan class="cls-8">F</tspan><tspan class="cls-9" x="5.37" y="0">ull ope</tspan><tspan class="cls-10" x="34.88" y="0">r</tspan><tspan x="38.31" y="0">ation</tspan></text><text class="cls-1" transform="translate(329.43 56.54)">Initial i<tspan class="cls-11" x="28.92" y="0">n</tspan><tspan class="cls-12" x="34.74" y="0">v</tspan><tspan x="39.34" y="0">est</tspan><tspan class="cls-5" x="52.42" y="0">m</tspan><tspan x="61.7" y="0">ent</tspan><tspan class="cls-13" x="0" y="10.47">r</tspan><tspan x="3.39" y="10.47">etu</tspan><tspan class="cls-6" x="18.08" y="10.47">r</tspan><tspan class="cls-7" x="21.5" y="10.47">ns </tspan><tspan class="cls-14" x="33.97" y="10.47">r</tspan><tspan x="37.35" y="10.47">e</tspan><tspan class="cls-10" x="42.63" y="10.47">c</tspan><tspan x="47.46" y="10.47">ei</tspan><tspan class="cls-12" x="55.08" y="10.47">v</tspan><tspan x="59.68" y="10.47">ed</tspan><tspan class="cls-12" x="0" y="20.95">b</tspan><tspan x="5.79" y="20.95">y T</tspan><tspan class="cls-15" x="17.81" y="20.95">P</tspan><tspan x="23.69" y="20.95">A </tspan><tspan class="cls-16" x="32.23" y="20.95">h</tspan><tspan class="cls-9" x="38.16" y="20.95">olde</tspan><tspan class="cls-17" x="57.17" y="20.95">r</tspan><tspan x="60.63" y="20.95">s</tspan></text><text class="cls-18" transform="translate(47.99 41.28)"><tspan class="cls-19">Q</tspan><tspan x="8.34" y="0">1</tspan></text><text class="cls-20" transform="translate(148.05 41.28)"><tspan class="cls-19">Q</tspan><tspan x="8.34" y="0">2</tspan></text><text class="cls-21" transform="translate(239.02 41.28)"><tspan class="cls-22">Q</tspan><tspan x="8.31" y="0">3</tspan></text><text class="cls-1" transform="translate(420.11 56.54)"><tspan class="cls-23">C</tspan><tspan x="6.07" y="0">ontinued g</tspan><tspan class="cls-13" x="54.59" y="0">r</tspan><tspan class="cls-12" x="57.98" y="0">o</tspan><tspan class="cls-24" x="63.32" y="0">w</tspan><tspan x="71.12" y="0">th</tspan><tspan x="0" y="10.47">of i</tspan><tspan class="cls-11" x="13.07" y="10.47">n</tspan><tspan class="cls-12" x="18.89" y="10.47">v</tspan><tspan x="23.49" y="10.47">est</tspan><tspan class="cls-5" x="36.57" y="10.47">m</tspan><tspan x="45.85" y="10.47">ents a</tspan><tspan class="cls-16" x="72.27" y="10.47">n</tspan><tspan x="78.2" y="10.47">d</tspan><tspan x="0" y="20.95">divide</tspan><tspan class="cls-16" x="26.53" y="20.95">n</tspan><tspan x="32.46" y="20.95">ds </tspan><tspan class="cls-4" x="44.93" y="20.95">t</tspan><tspan class="cls-9" x="48.31" y="20.95">o T</tspan><tspan class="cls-15" x="61.08" y="20.95">P</tspan><tspan x="66.95" y="20.95">A </tspan><tspan class="cls-16" x="75.5" y="20.95">h</tspan><tspan class="cls-9" x="81.42" y="20.95">olde</tspan><tspan class="cls-17" x="100.43" y="20.95">r</tspan><tspan x="103.9" y="20.95">s</tspan></text><text class="cls-25" transform="translate(420.11 41.28)"><tspan class="cls-26">F</tspan><tspan x="6.25" y="0">utu</tspan><tspan class="cls-27" x="24.34" y="0">r</tspan><tspan class="cls-28" x="28.56" y="0">e</tspan></text><text class="cls-18" transform="translate(47.99 169.92)"><tspan class="cls-29">2</tspan><tspan class="cls-30" x="5.88" y="0">0</tspan><tspan x="12.61" y="0">21</tspan></text><text class="cls-25" transform="translate(420.11 169.91)"><tspan class="cls-29">2</tspan><tspan class="cls-30" x="5.88" y="0">0</tspan><tspan x="12.61" y="0">22 - B</tspan><tspan class="cls-19" x="41.58" y="0">e</tspan><tspan class="cls-31" x="47.79" y="0">y</tspan><tspan x="53.62" y="0">o</tspan><tspan class="cls-32" x="60.17" y="0">n</tspan><tspan x="67.14" y="0">d</tspan></text><text class="cls-33" transform="translate(329.43 41.28)">Q4</text><line class="cls-34" x1="37.99" y1="37.72" x2="37.99" y2="150.99"/><path class="cls-35" d="M36.58,37.79A1.41,1.41,0,1,1,38,39.2,1.41,1.41,0,0,1,36.58,37.79Z"/><line class="cls-34" x1="138.62" y1="37.72" x2="138.62" y2="150.99"/><path class="cls-35" d="M137.21,37.79a1.41,1.41,0,1,1,1.41,1.41A1.41,1.41,0,0,1,137.21,37.79Z"/><line class="cls-34" x1="228.74" y1="37.72" x2="228.74" y2="150.99"/><path class="cls-35" d="M227.33,37.79a1.41,1.41,0,1,1,1.41,1.41A1.41,1.41,0,0,1,227.33,37.79Z"/><line class="cls-34" x1="319.43" y1="37.72" x2="319.43" y2="150.99"/><path class="cls-35" d="M318,37.79a1.41,1.41,0,1,1,1.41,1.41A1.41,1.41,0,0,1,318,37.79Z"/><line class="cls-36" x1="30.38" y1="150.99" x2="138.05" y2="150.99"/><rect class="cls-37" x="27.25" y="147.69" width="6.6" height="6.6"/><line class="cls-38" x1="138.05" y1="150.99" x2="228.74" y2="150.99"/><line class="cls-39" x1="228.74" y1="150.99" x2="319.43" y2="150.99"/><line class="cls-40" x1="319.43" y1="150.99" x2="410.11" y2="150.99"/><line class="cls-34" x1="410.11" y1="37.72" x2="410.11" y2="150.99"/><path class="cls-35" d="M408.7,37.79a1.41,1.41,0,1,1,1.41,1.41A1.41,1.41,0,0,1,408.7,37.79Z"/><line class="cls-41" x1="410.11" y1="150.99" x2="577.58" y2="150.99"/><polygon class="cls-42" points="576.12 155.97 584.75 150.99 576.12 146 576.12 155.97"/></svg>